<?xml version="1.0" standalone="no"?>
<!DOCTYPE svg PUBLIC "-//W3C//DTD SVG 20010904//EN"
 "http://www.w3.org/TR/2001/REC-SVG-20010904/DTD/svg10.dtd">
<svg version="1.0" xmlns="http://www.w3.org/2000/svg"
 width="768.000000pt" height="768.000000pt" viewBox="0 0 768.000000 768.000000"
 preserveAspectRatio="xMidYMid meet">

<g transform="translate(0.000000,768.000000) scale(0.100000,-0.100000)"
fill="#000000" stroke="none">
<path d="M0 3840 l0 -3840 370 0 c322 0 370 2 370 15 0 8 5 15 11 15 5 0 8 4
5 8 -3 5 1 20 9 35 7 14 10 29 7 33 -4 4 -1 4 6 -1 10 -5 11 -10 3 -18 -6 -6
-11 -21 -11 -33 0 -13 -5 -26 -10 -29 -6 -4 -7 -11 -4 -17 4 -6 10 -5 15 3 6
10 9 11 9 2 0 -8 13 -13 30 -13 28 0 30 3 30 34 0 19 4 38 10 41 6 3 10 18 9
33 l-1 27 -13 -30 -14 -30 -1 32 c0 17 5 33 11 35 5 2 11 20 12 40 1 20 5 34
8 32 8 -5 18 81 14 129 -2 20 0 37 4 37 4 0 8 6 8 13 1 28 24 315 29 357 3 25
16 67 30 94 17 33 24 57 19 75 -3 16 -2 21 3 13 6 -9 14 -3 27 22 16 30 17 37
4 52 -8 10 -9 15 -2 11 13 -8 25 6 28 32 1 9 9 34 19 55 10 21 15 47 13 58 -3
11 -1 16 5 11 8 -4 9 4 5 25 -5 25 -3 30 8 25 8 -3 15 -4 15 -2 8 119 46 203
125 284 l50 50 6 -150 c3 -82 9 -161 13 -175 14 -56 27 -185 36 -360 4 -102
13 -198 18 -215 6 -16 13 -50 16 -75 5 -44 5 -44 -19 20 -33 90 -95 210 -95
184 0 -12 6 -40 14 -62 8 -22 12 -43 9 -46 -4 -3 -1 -6 5 -6 6 0 9 -7 5 -17
-4 -10 -2 -14 4 -10 12 8 57 -130 72 -223 19 -116 25 -260 12 -260 -7 0 -10
-4 -7 -8 2 -4 0 -14 -5 -22 -8 -12 -9 -11 -7 4 2 10 -4 21 -12 23 -12 4 -12 3
-2 -5 11 -7 11 -12 -2 -24 -8 -9 -14 -17 -13 -19 1 -3 -3 3 -10 11 -7 8 -17
20 -22 26 -18 21 -96 148 -108 175 -8 18 -8 30 -1 37 6 6 6 16 0 28 -5 11 -9
31 -8 46 1 14 -2 24 -7 21 -5 -3 -13 1 -18 8 -14 23 -10 32 8 18 9 -8 -2 13
-24 46 -22 33 -51 80 -63 105 -13 25 -27 48 -32 51 -5 3 -10 10 -10 15 0 5 -4
8 -9 6 -8 -2 -14 29 -10 51 1 5 -3 6 -9 2 -6 -4 -8 -16 -4 -27 4 -12 2 -18 -4
-15 -19 13 21 -121 70 -233 65 -149 107 -228 168 -320 77 -117 73 -110 52
-110 -58 0 -207 170 -285 325 -33 64 -36 68 -42 44 -7 -28 29 -129 46 -129 5
0 8 -3 7 -7 -3 -17 24 -69 45 -86 12 -10 16 -16 9 -12 -10 5 -10 0 1 -26 7
-18 20 -33 30 -35 20 -3 21 1 6 27 -5 11 -15 16 -21 13 -7 -5 -8 -2 -3 6 6 10
15 4 36 -21 15 -19 26 -35 24 -37 -2 -2 5 -12 16 -23 11 -11 17 -25 13 -31 -4
-6 -3 -8 4 -4 6 3 20 -6 32 -21 21 -27 24 -28 146 -32 l124 -3 -11 28 c-12 32
-9 370 3 351 5 -8 8 -6 8 6 0 9 -4 17 -10 17 -5 0 -10 9 -10 21 0 13 4 18 11
13 9 -5 10 1 5 20 -4 15 -2 26 4 26 5 0 10 16 10 35 0 25 4 35 16 35 8 0 22 6
30 14 15 16 18 27 7 25 -20 -3 -24 2 -13 16 7 8 15 13 19 10 8 -4 33 116 26
123 -2 2 -7 -9 -10 -24 -18 -82 -18 -82 -25 -49 l-7 30 -8 -40 c-5 -22 -8 -52
-8 -67 0 -15 -4 -25 -9 -22 -4 3 -8 12 -8 19 0 8 -6 12 -14 9 -11 -4 -16 10
-21 63 -3 37 -10 84 -15 103 -7 31 -8 28 -9 -30 -1 -70 -21 -125 -21 -60 0 20
-15 128 -34 240 -56 334 -81 602 -63 656 10 29 221 114 284 114 35 0 210 76
403 173 96 49 239 113 318 143 79 29 169 67 199 84 61 33 78 37 68 18 -4 -7
-1 -6 7 2 7 8 19 16 27 18 7 2 43 21 79 42 36 22 72 40 79 40 7 0 13 5 13 11
0 5 -5 7 -12 3 -7 -4 -8 -3 -4 4 11 18 96 65 120 67 12 2 20 7 19 12 -1 6 9
15 23 21 22 11 24 10 19 -11 -21 -97 -35 -182 -35 -216 0 -22 -4 -41 -10 -43
-5 -2 -9 -14 -9 -28 4 -115 3 -178 -4 -335 -4 -99 -12 -197 -16 -218 -5 -20
-6 -47 -3 -60 5 -19 3 -20 -10 -9 -25 20 -30 2 -27 -101 2 -50 -1 -138 -6
-194 -7 -88 -6 -103 7 -103 8 0 26 16 40 36 14 19 30 36 34 36 20 2 54 31 54
47 0 14 2 14 10 1 9 -13 10 -13 10 0 0 24 79 98 88 83 6 -9 16 -5 37 13 30 25
30 25 2 8 -15 -9 -30 -14 -34 -10 -3 3 -4 8 -2 9 78 64 218 147 190 113 -12
-14 -11 -16 3 -16 9 0 16 6 16 13 0 8 4 7 10 -3 5 -8 21 -15 36 -15 18 0 28
-6 30 -18 1 -9 -2 -15 -7 -11 -5 3 -7 10 -4 15 7 10 -8 13 -18 3 -3 -4 4 -14
16 -24 16 -13 27 -15 39 -9 23 12 24 31 1 22 -11 -4 -14 -3 -9 6 4 6 2 20 -5
29 -7 9 1 4 19 -12 17 -16 29 -33 26 -37 -2 -4 0 -10 6 -14 6 -4 7 -12 4 -18
-4 -7 -4 -9 1 -5 9 9 35 -9 35 -24 0 -6 -7 -7 -16 -4 -14 5 -15 4 -4 -9 14
-17 35 -21 25 -5 -3 6 -1 10 6 10 7 0 2 11 -11 25 -13 14 -19 25 -13 25 6 0
25 -19 43 -43 18 -23 47 -51 64 -62 17 -11 31 -27 31 -35 0 -8 8 -15 17 -15 9
0 20 -4 25 -9 5 -5 2 -6 -6 -1 -9 5 -12 4 -7 -3 4 -6 13 -9 21 -6 10 4 18 -3
25 -20 5 -14 14 -26 19 -26 5 0 13 -10 16 -21 6 -17 9 -19 16 -8 5 9 2 23 -8
39 l-16 25 27 -24 c25 -24 25 -25 9 -50 -46 -72 -60 -90 -66 -86 -4 3 -5 2 -2
-1 7 -10 -55 -95 -65 -89 -7 4 -23 -25 -25 -47 0 -3 -4 -10 -9 -15 -5 -5 -6
-2 -1 7 15 28 -11 -4 -44 -53 -17 -27 -27 -46 -22 -42 17 10 20 -11 7 -55 -12
-39 -14 -42 -24 -24 -15 25 -16 9 -1 -18 10 -18 8 -19 -13 -13 -20 7 -21 6 -9
-8 7 -9 18 -14 24 -10 16 10 -1 -76 -19 -94 -9 -9 -12 -22 -8 -32 8 -18 9 -38
5 -141 -2 -63 -4 -70 -12 -45 -5 17 -7 35 -4 42 2 7 -2 25 -10 40 -8 15 -15
26 -16 23 -6 -52 -9 -231 -4 -277 l7 -63 34 0 c29 0 34 3 34 23 0 54 41 487
51 542 18 91 65 184 181 355 193 285 286 473 303 613 7 51 12 62 44 87 20 16
83 67 140 112 303 241 288 226 408 389 162 221 284 404 324 484 42 87 47 167
11 212 -67 85 -66 102 6 62 45 -25 51 -34 132 -196 88 -175 126 -240 194 -331
l39 -53 -13 -52 c-35 -142 -179 -453 -331 -717 -39 -69 -95 -172 -123 -230
-29 -58 -69 -139 -90 -180 l-38 -74 -25 49 c-38 75 -142 263 -167 299 -43 64
-217 255 -239 262 -43 15 -87 -2 -173 -66 -43 -32 -52 -45 -58 -80 -21 -131
-135 -399 -227 -535 -190 -279 -233 -345 -251 -390 -43 -108 1 -206 92 -209
35 -1 46 4 70 31 34 38 54 103 45 149 -5 32 -54 84 -77 84 -6 0 -8 3 -5 6 4 4
18 -1 33 -11 15 -9 29 -13 33 -9 8 11 62 11 79 1 6 -5 17 -5 22 -2 5 3 10 1
10 -5 0 -6 -14 -9 -33 -7 -26 3 -33 0 -33 -15 0 -10 6 -18 13 -18 7 0 12 5 11
11 -2 6 9 12 24 13 15 1 35 10 44 21 8 11 12 14 9 7 -4 -8 11 -4 36 10 24 12
53 26 64 29 15 5 12 7 -13 8 -18 1 -40 -6 -48 -14 -9 -8 -21 -15 -27 -15 -8 0
-7 3 2 9 11 7 11 9 0 14 -8 3 -4 6 9 6 13 1 21 4 18 9 -2 4 20 7 49 7 44 -1
52 1 43 12 -8 10 -7 12 3 8 12 -4 14 3 11 34 -6 61 12 73 95 66 100 -8 102 -8
96 -18 -3 -5 4 -4 15 2 12 6 23 15 26 20 7 11 -32 46 -41 37 -4 -4 -1 -12 7
-17 10 -7 3 -8 -25 -3 -49 8 -74 27 -30 23 17 -2 40 2 52 9 25 14 45 16 23 2
-10 -6 -3 -8 23 -7 38 2 53 17 17 17 -17 0 -19 2 -8 14 16 17 34 11 41 -15 5
-17 -4 -24 -27 -20 -5 1 -16 -1 -25 -4 -13 -5 -13 -7 -1 -15 8 -5 24 -3 41 5
24 13 27 20 26 65 -1 27 -3 50 -5 50 -2 0 -10 -6 -18 -14 -15 -15 -47 -11 -77
9 -16 11 -15 13 13 25 38 16 38 23 -2 43 -23 11 -27 16 -14 16 14 1 16 5 10
19 -8 16 -9 55 -2 97 2 14 -2 20 -14 19 -17 -2 -23 8 -19 29 1 5 -3 6 -9 2
-13 -8 -31 39 -24 60 4 8 1 15 -6 15 -6 0 -9 -4 -6 -9 6 -10 -49 -61 -65 -61
-6 0 -7 -5 -4 -10 8 -12 -21 -60 -35 -60 -6 0 -1 9 10 20 12 12 18 25 15 31
-9 14 -25 1 -18 -16 3 -8 0 -15 -7 -15 -7 0 -10 8 -7 19 3 11 0 22 -7 24 -6 2
-3 3 7 1 25 -3 49 24 42 50 -6 21 -6 21 13 -1 18 -20 21 -21 33 -7 10 12 10
17 0 27 -7 7 -12 8 -11 2 5 -23 -1 -28 -13 -10 -17 22 -40 11 -32 -15 6 -20
-20 -36 -31 -18 -4 7 -3 8 4 4 7 -4 12 -3 12 3 0 18 -17 21 -30 6 -14 -17 -30
-20 -30 -5 0 6 7 10 15 10 8 0 15 4 15 9 0 5 8 11 18 13 16 3 16 4 0 10 -18 7
-83 -30 -83 -47 -1 -6 -6 -20 -13 -33 -7 -12 -10 -28 -6 -35 4 -6 4 -9 -1 -5
-4 4 -14 0 -22 -10 -8 -9 -5 2 7 25 11 23 20 49 20 58 0 9 7 18 16 22 8 3 13
12 10 19 -3 8 0 13 7 11 7 -1 11 3 10 10 -2 7 4 10 12 7 8 -4 15 -2 15 4 0 5
-7 13 -16 16 -11 4 -13 13 -8 28 15 49 25 71 30 65 3 -3 1 -15 -6 -26 -6 -12
-7 -21 -2 -21 4 0 8 -9 9 -21 2 -17 -1 -18 -13 -9 -8 8 -14 8 -14 2 0 -14 28
-23 35 -12 4 6 3 14 0 20 -3 5 1 10 9 10 18 0 21 11 7 26 -4 5 -11 27 -14 49
-3 22 -3 34 0 28 2 -7 9 -13 14 -13 6 0 5 9 -2 21 -7 14 -8 24 -1 31 6 6 8 17
5 24 -3 9 3 14 18 15 13 0 32 2 42 4 9 2 17 -2 17 -8 0 -8 3 -7 9 2 10 16 88
26 126 17 20 -5 25 -11 20 -25 -3 -11 -1 -22 5 -26 6 -3 8 -11 5 -16 -4 -5 -2
-9 3 -9 6 0 12 7 16 15 3 8 0 14 -6 12 -6 -1 -12 3 -15 10 -2 6 2 10 10 9 21
-3 151 -155 193 -226 35 -60 36 -64 19 -77 -11 -7 -22 -13 -26 -13 -13 0 -18
44 -6 52 9 5 9 10 -1 20 -9 9 -12 8 -12 -5 0 -10 -7 -20 -15 -23 -13 -5 -13
-8 1 -21 17 -17 12 -29 -8 -17 -7 4 -24 8 -38 8 -21 1 -25 6 -25 31 -1 17 -6
30 -13 29 -7 -1 -21 -2 -32 -3 -11 0 -20 -6 -20 -12 0 -6 -11 -24 -25 -41 -16
-19 -25 -41 -24 -61 1 -24 3 -26 6 -9 4 18 11 22 44 22 21 0 39 5 39 10 0 6
18 10 40 10 22 0 40 -4 40 -10 0 -5 7 -10 15 -10 8 0 15 6 15 13 0 14 38 17
58 4 7 -5 12 -4 12 2 0 6 -5 11 -12 11 -6 0 -8 3 -5 6 11 11 38 -18 33 -33 -3
-8 -1 -11 4 -8 14 9 80 -134 85 -184 2 -23 0 -39 -5 -36 -9 5 -23 -25 -16 -33
12 -12 60 63 124 193 38 77 86 165 107 195 50 74 86 146 77 155 -4 5 -2 5 5 1
8 -4 25 19 48 66 20 40 44 84 53 98 9 13 11 21 5 17 -9 -6 -11 -3 -7 7 3 9 10
14 16 13 5 -1 15 7 21 18 7 11 20 32 30 47 12 18 16 36 12 50 -4 16 -3 19 3
10 7 -11 11 -10 17 5 4 10 7 29 7 43 -1 22 -1 22 6 6 11 -25 26 -4 17 23 -7
24 4 51 21 51 8 0 14 7 14 16 0 9 5 12 13 8 6 -4 9 -4 5 0 -7 8 19 93 34 113
5 6 8 17 7 25 -3 26 1 38 15 38 8 0 15 16 19 41 3 23 10 46 15 51 15 15 187
-90 312 -190 58 -46 161 -119 230 -163 69 -44 177 -113 240 -154 63 -40 174
-109 245 -153 72 -43 162 -99 200 -122 39 -24 138 -76 221 -114 83 -39 161
-78 174 -86 23 -16 22 -16 -43 -48 -110 -54 -217 -185 -371 -455 -37 -65 -75
-136 -85 -158 -10 -21 -21 -36 -25 -32 -4 4 -4 -1 0 -11 6 -15 4 -17 -6 -11
-8 5 -11 4 -7 -2 3 -5 -16 -60 -44 -122 -27 -61 -52 -125 -56 -141 -3 -17 -10
-27 -16 -23 -5 3 -7 1 -4 -4 10 -16 -4 -74 -15 -67 -6 4 -8 -1 -4 -13 4 -11 0
-48 -8 -82 l-14 -61 24 0 c17 0 25 7 28 23 46 258 126 465 283 730 150 254
246 373 341 421 63 32 66 31 139 -55 72 -85 122 -191 177 -379 58 -199 63
-223 75 -355 6 -60 25 -172 43 -247 l33 -138 133 0 132 0 0 3840 0 3840 -3840
0 -3840 0 0 -3840z m7546 3749 c18 -11 42 -35 53 -53 l21 -33 0 -3670 0 -3670
-22 -11 c-13 -6 -17 -11 -10 -11 22 -1 -4 -37 -43 -60 -22 -13 -53 -21 -79
-21 l-44 0 -25 108 c-32 133 -34 144 -46 267 -15 146 -81 394 -143 535 -29 65
-100 169 -146 213 -22 21 -81 60 -132 87 -57 29 -87 50 -79 54 8 3 4 3 -8 0
-28 -7 -241 100 -412 208 -69 43 -128 82 -131 86 -3 4 -11 8 -19 10 -8 2 -37
18 -65 36 -91 59 -160 102 -201 126 -111 66 -325 223 -318 233 3 7 3 9 -1 5
-4 -3 -43 20 -86 52 -44 32 -105 73 -137 91 -97 54 -143 89 -143 107 0 9 -25
50 -55 91 -60 79 -95 140 -202 351 -62 123 -72 138 -118 167 -27 18 -54 34
-60 36 -15 5 -7 351 11 472 26 180 82 369 156 525 56 118 58 120 137 120 79 0
95 9 176 100 l59 65 -60 -56 c-84 -80 -112 -93 -193 -85 -36 4 -79 7 -94 8
-27 1 -28 3 -22 37 21 117 74 299 111 381 23 53 52 138 63 193 24 109 41 139
116 208 149 137 228 100 271 -127 25 -138 17 -221 -33 -325 -29 -60 -34 -76
-18 -55 62 77 87 213 65 357 -21 146 -67 239 -118 239 -55 0 -57 11 -19 91 19
41 51 139 71 219 20 79 38 146 41 148 6 6 22 -31 30 -73 l8 -40 9 50 c7 44 3
110 -17 236 -6 38 5 43 34 15 32 -29 110 -71 118 -62 3 3 -6 15 -21 27 -32 25
-58 74 -80 153 -14 47 -15 68 -7 108 17 75 13 146 -10 211 -11 32 -18 61 -15
64 3 3 20 -1 38 -9 46 -22 86 -30 92 -19 3 5 -7 14 -23 21 -42 17 -86 67 -125
143 -30 57 -36 79 -36 130 0 85 -21 156 -69 235 -22 37 -43 79 -46 94 -8 31
-47 73 -88 95 -19 9 -37 33 -54 71 -14 31 -44 84 -68 118 -77 107 -146 154
-257 177 -48 9 -65 17 -74 34 -16 34 -45 63 -79 80 l-30 15 28 -29 c48 -51 33
-66 -54 -52 -80 13 -116 30 -187 92 -34 30 -82 61 -105 70 -70 25 -325 60
-392 54 -81 -8 -245 -52 -312 -83 -42 -20 -65 -25 -95 -21 -77 10 -76 44 3 85
47 24 26 22 -55 -6 -31 -11 -52 -25 -59 -40 -7 -15 -16 -21 -26 -16 -41 17
-125 26 -211 21 -87 -4 -103 -8 -186 -48 -49 -24 -103 -49 -120 -56 -16 -6
-46 -19 -67 -27 -55 -22 -130 -30 -155 -17 -18 9 -21 9 -16 -3 6 -16 63 -46
88 -46 25 0 19 -17 -24 -64 -66 -72 -201 -103 -252 -58 -36 31 -18 -10 20 -49
28 -27 51 -40 80 -45 23 -4 42 -10 42 -15 0 -19 -92 -175 -112 -191 -23 -17
-112 -45 -163 -51 -22 -3 -19 -4 13 -6 23 0 42 -6 42 -11 0 -14 -79 -63 -137
-85 -56 -21 -108 -57 -124 -86 l-11 -21 29 21 c15 11 62 28 103 36 106 22 105
22 102 5 -34 -150 -38 -158 -114 -238 -95 -102 -118 -148 -118 -237 0 -50 -6
-81 -22 -113 -26 -56 -54 -242 -44 -297 l8 -39 18 53 c33 97 52 95 58 -8 3
-48 -2 -89 -17 -142 -21 -75 -27 -162 -14 -209 5 -20 9 -11 19 43 21 112 48
126 59 29 9 -71 32 -155 57 -205 37 -74 118 -282 118 -305 0 -21 -3 -22 -37
-16 -105 20 -149 -7 -178 -109 -27 -95 -23 -197 10 -287 56 -153 127 -267 235
-378 76 -78 130 -109 209 -121 44 -6 47 -8 61 -51 50 -157 165 -479 178 -500
8 -14 59 -70 113 -125 94 -96 98 -103 117 -175 21 -75 36 -149 46 -227 6 -39
3 -44 -39 -85 -34 -33 -58 -73 -105 -176 -95 -211 -150 -278 -280 -345 -103
-53 -259 -140 -312 -173 -21 -14 -44 -22 -50 -18 -6 4 -8 3 -5 -3 10 -16 -167
-98 -190 -89 -8 3 -12 2 -9 -2 3 -5 -25 -19 -62 -32 -37 -13 -80 -29 -95 -37
-24 -12 -31 -12 -45 -1 -15 11 -15 11 -5 -3 11 -13 -7 -25 -130 -86 -178 -89
-236 -113 -367 -153 -134 -41 -289 -98 -316 -115 -55 -35 -133 -127 -167 -196
-49 -100 -114 -273 -169 -449 -60 -191 -67 -224 -78 -365 -7 -92 -17 -147 -45
-235 -20 -63 -40 -128 -45 -145 -4 -16 -17 -55 -28 -85 l-19 -55 -279 -2
c-262 -1 -281 0 -311 18 -18 11 -41 35 -52 53 -21 33 -21 45 -21 836 1 618 3
807 13 819 9 12 9 13 -1 7 -9 -6 -12 567 -12 2850 0 2855 0 2857 20 2890 12
18 35 42 53 53 l32 21 3669 0 3669 0 33 -21z m-3693 -1179 c-3 -33 -3 -60 1
-60 3 0 29 17 58 37 36 27 50 32 45 20 -6 -15 -3 -17 16 -11 31 10 172 7 253
-6 77 -12 84 -16 84 -36 0 -19 16 -18 24 1 9 24 25 17 18 -7 -5 -22 -5 -22 19
-7 27 18 109 32 109 19 0 -5 -13 -11 -30 -15 -57 -12 -42 -25 32 -26 40 -1 65
-3 56 -6 -29 -7 -21 -17 35 -41 28 -13 59 -27 67 -33 8 -5 51 -27 95 -49 75
-37 78 -39 45 -40 l-35 -1 25 -14 c14 -8 19 -14 11 -15 -8 0 3 -16 25 -35 31
-28 34 -35 17 -30 -29 8 -29 -2 2 -48 25 -35 23 -51 -3 -25 -19 19 -15 -13 5
-42 9 -13 18 -32 18 -41 1 -10 28 -48 60 -85 33 -37 49 -61 37 -53 -12 8 -22
17 -22 20 0 4 -12 15 -27 25 -27 17 -27 17 5 -22 70 -83 80 -103 119 -219 40
-117 114 -418 113 -462 0 -30 -4 -29 -60 12 -65 48 -196 108 -305 140 -71 21
-119 28 -225 32 -213 8 -401 -33 -551 -121 -76 -45 -151 -66 -233 -66 -28 0
-70 15 -141 50 -115 58 -178 75 -324 90 -175 17 -374 -11 -530 -74 l-63 -25 5
42 c4 23 14 104 23 180 10 75 21 137 25 137 4 0 10 -16 14 -36 9 -51 16 -37
26 53 5 43 16 96 23 118 l15 40 7 -32 c15 -75 30 -19 41 162 3 55 14 123 24
152 10 30 13 53 8 55 -5 2 2 19 16 38 27 37 32 55 13 45 -7 -4 3 7 22 25 l35
31 -32 -4 c-32 -3 -32 -3 -16 15 17 19 138 108 146 108 3 0 -1 -17 -9 -37 -7
-21 -13 -46 -14 -55 0 -30 18 -20 29 15 6 17 20 43 31 57 l21 25 -7 -27 c-10
-46 7 -53 26 -11 10 21 34 54 54 72 33 32 36 33 36 13 0 -28 5 -28 42 3 17 14
44 33 60 41 29 15 30 15 23 -6 -6 -19 -5 -21 13 -11 12 6 24 16 27 22 5 7 11
6 21 -2 11 -9 14 -8 14 6 0 17 11 17 53 0 12 -5 17 -2 17 10 0 15 2 15 16 4
13 -10 17 -10 23 0 10 16 44 0 60 -27 9 -14 10 -13 11 11 0 26 1 27 16 13 20
-21 34 -12 34 22 l1 27 15 -27 c15 -29 34 -37 34 -15 0 6 16 -14 34 -47 19
-32 40 -65 49 -73 13 -13 13 -9 1 36 -13 50 -7 97 17 144 16 29 19 19 12 -43z
m793 -1195 c115 -22 181 -57 205 -109 36 -78 17 -292 -35 -394 -36 -71 -70
-99 -151 -125 -62 -19 -92 -22 -250 -22 -164 0 -185 2 -237 23 -68 28 -110 72
-151 162 -71 156 -76 289 -13 358 42 47 187 98 321 115 77 10 241 6 311 -8z
m-1303 -31 c89 -9 201 -51 240 -89 83 -80 78 -259 -11 -429 -65 -123 -167
-162 -410 -154 -231 8 -276 36 -342 215 -28 75 -33 105 -37 203 -5 108 -4 117
19 150 61 91 277 132 541 104z m1720 -174 c96 -69 95 -34 28 -605 -36 -308
-107 -608 -175 -744 -89 -174 -248 -347 -478 -517 -233 -172 -388 -229 -603
-222 -138 5 -166 14 -291 99 -104 69 -323 245 -402 323 -111 108 -124 136
-253 540 -127 396 -150 520 -174 955 -7 123 5 145 25 43 31 -157 95 -309 150
-356 56 -47 127 -61 305 -61 142 0 168 3 234 24 97 32 161 83 195 155 15 31
42 113 61 183 43 154 54 168 131 168 43 0 59 -4 69 -19 8 -10 32 -76 55 -146
53 -165 89 -225 159 -267 74 -44 142 -57 306 -57 251 1 371 35 426 122 37 58
63 141 88 277 16 84 26 114 42 128 30 24 39 22 102 -23z m-2542 -157 c15 -9
36 -32 47 -52 19 -35 124 -345 158 -469 17 -62 12 -94 -10 -58 -46 75 -93 140
-105 144 -8 3 5 -21 27 -53 23 -32 44 -73 48 -91 5 -27 12 -36 38 -42 29 -8
32 -13 53 -93 12 -46 25 -95 29 -108 7 -23 5 -24 -30 -18 -106 17 -205 97
-306 245 -65 95 -93 150 -126 252 -23 72 -26 94 -21 159 8 101 23 148 58 184
27 26 34 29 71 23 23 -4 54 -14 69 -23z m2363 -1468 c-21 -144 -24 -194 -24
-506 l0 -346 -70 -104 c-83 -124 -160 -233 -247 -350 -63 -86 -161 -176 -377
-344 -158 -123 -164 -130 -176 -209 -6 -38 -21 -92 -33 -121 -29 -68 -169
-325 -177 -325 -3 0 -17 30 -30 68 -12 37 -51 128 -85 202 -163 350 -232 508
-288 660 -59 160 -61 168 -62 265 0 55 5 150 12 211 9 79 9 153 3 258 -9 136
-41 370 -56 409 -13 35 24 14 139 -78 224 -181 391 -233 611 -190 42 7 97 23
122 35 62 27 63 26 23 -12 -20 -18 -28 -28 -20 -23 9 6 37 21 63 34 45 21 82
53 45 38 -44 -18 -50 -17 -22 1 18 13 33 18 40 12 7 -5 23 3 46 23 19 18 27
26 17 18 -10 -8 -18 -11 -18 -8 0 4 33 32 73 62 280 211 399 321 481 443 16
23 30 41 32 40 1 -2 -9 -75 -22 -163z m-579 -395 c-3 -5 -12 -10 -18 -10 -7 0
-6 4 3 10 19 12 23 12 15 0z m-1032 -190 c-12 -9 -19 -20 -16 -24 4 -3 1 -6
-6 -6 -6 0 -11 -8 -9 -17 2 -11 -2 -17 -11 -15 -10 2 -12 -4 -7 -22 3 -14 2
-46 -3 -73 -12 -62 -22 -203 -13 -180 5 12 11 -4 20 -49 7 -37 10 -69 7 -72
-3 -3 -5 5 -5 19 l0 23 -16 -22 c-8 -12 -20 -20 -25 -17 -13 9 -12 4 15 -83
14 -42 30 -99 37 -125 8 -32 15 -44 20 -35 4 7 11 9 15 5 4 -3 1 -13 -6 -22
-7 -9 -10 -18 -6 -22 3 -3 6 0 6 7 0 7 3 10 7 6 4 -3 13 4 21 16 l13 23 -4
-22 c-3 -13 -2 -23 3 -23 4 0 13 -21 20 -47 15 -56 78 -213 92 -230 5 -7 7
-17 3 -23 -3 -5 -2 -10 3 -10 9 0 25 -37 23 -52 -1 -5 3 -8 8 -8 4 0 26 -39
47 -87 21 -49 64 -138 96 -200 62 -119 102 -213 94 -220 -2 -3 -12 9 -20 26
-20 38 -267 344 -334 414 -42 43 -49 44 -102 17 -60 -30 -111 -103 -263 -370
-82 -145 -120 -205 -124 -193 -2 5 8 76 22 157 13 80 32 246 40 369 11 149 24
256 40 327 28 126 36 198 24 225 -7 16 -8 13 -5 -11 3 -17 1 -35 -3 -40 -5 -5
-11 -42 -14 -82 -6 -79 -17 -110 -17 -48 0 54 40 309 50 320 5 5 6 14 3 21 -5
15 36 67 48 60 4 -3 6 3 5 12 -3 19 15 43 27 36 4 -2 2 -13 -3 -24 -7 -13 -7
-19 0 -19 5 0 10 5 10 10 0 6 6 10 14 10 8 0 18 5 22 12 5 8 2 9 -9 5 -10 -3
-17 -2 -17 2 0 5 7 11 15 15 8 3 15 10 15 16 0 6 -7 4 -16 -4 -32 -33 -31 -4
3 62 19 37 38 72 43 77 4 6 10 22 14 38 3 15 11 27 16 27 5 0 7 6 4 14 -9 22
27 81 82 138 10 10 20 15 23 12 3 -3 -4 -14 -16 -24z m-48 -500 c3 -5 1 -10
-4 -10 -6 0 -11 5 -11 10 0 6 2 10 4 10 3 0 8 -4 11 -10z m64 -126 c7 -26 10
-49 7 -51 -3 -3 -10 14 -16 37 -6 23 -14 48 -17 57 -4 10 -2 14 4 10 6 -4 16
-28 22 -53z m-26 -4 c3 -11 1 -18 -4 -14 -5 3 -9 12 -9 20 0 20 7 17 13 -6z
m2049 -22 c-8 -8 -9 -4 -5 13 4 13 8 18 11 10 2 -7 -1 -18 -6 -23z m-1090
-986 c-6 -2 -9 -9 -6 -16 3 -8 -1 -30 -10 -49 -9 -22 -12 -51 -9 -77 11 -77
-63 -186 -80 -120 -3 12 -14 20 -26 20 -11 0 -26 10 -32 22 l-11 21 -14 -24
c-7 -13 -13 -31 -14 -41 0 -13 -8 -15 -42 -12 -24 2 -34 1 -24 -2 34 -10 46
-31 46 -78 0 -35 -4 -46 -16 -46 -9 0 -18 9 -21 20 -5 19 -43 29 -43 12 0 -14
-74 -36 -78 -23 -2 7 -9 8 -22 1 -15 -8 -24 -5 -40 12 -17 19 -20 19 -20 4 0
-9 -5 -14 -10 -11 -6 4 -17 -9 -25 -27 -8 -18 -14 -27 -15 -19 0 11 -3 11 -17
0 -15 -13 -15 -12 -3 8 8 12 18 19 24 16 5 -4 7 1 3 10 -6 16 15 41 26 30 4
-3 7 0 7 9 0 8 9 23 20 33 11 10 20 15 20 10 0 -4 9 4 21 19 32 40 57 51 78
32 10 -9 21 -16 25 -16 5 0 -2 9 -15 19 -13 11 -21 23 -16 27 4 4 14 -1 22
-12 13 -16 14 -16 9 -1 -5 13 -2 16 12 11 15 -5 16 -4 4 4 -8 6 -18 8 -22 6
-4 -3 -8 0 -8 6 0 7 6 10 13 7 16 -6 47 11 47 25 0 9 -3 9 -12 0 -17 -17 -33
-15 -18 3 13 15 55 22 46 7 -3 -5 1 -9 9 -9 8 0 15 7 15 14 0 8 -4 12 -9 8 -5
-3 -12 -2 -15 3 -4 8 39 47 53 47 3 0 17 8 31 18 13 9 21 17 17 17 -4 0 18 26
48 58 31 31 58 67 62 80 5 21 7 20 25 -15 13 -23 16 -39 10 -41z m175 56 c-3
-8 -6 -5 -6 6 -1 11 2 17 5 13 3 -3 4 -12 1 -19z m-337 -104 c0 0 -13 -10 -28
-21 -20 -15 -33 -18 -43 -12 -11 8 -10 9 6 7 13 -2 19 2 18 12 -2 10 6 15 22
15 14 0 25 0 25 -1z m-149 -91 c13 -16 12 -17 -3 -4 -10 7 -18 15 -18 17 0 8
8 3 21 -13z m-2923 -53 c-7 -10 -14 -17 -17 -15 -4 4 18 35 25 35 2 0 -1 -9
-8 -20z m2882 -13 c0 -2 -15 -16 -32 -33 l-33 -29 29 33 c28 30 36 37 36 29z
m-2510 -269 c0 -39 -6 -34 -13 10 -3 18 -1 30 4 26 5 -3 9 -19 9 -36z m2568
11 c-3 -8 -7 -3 -11 10 -4 17 -3 21 5 13 5 -5 8 -16 6 -23z m92 9 c0 -4 -4 -8
-9 -8 -6 0 -12 4 -15 8 -3 5 1 9 9 9 8 0 15 -4 15 -9z m-490 -7 c0 -5 -7 -12
-16 -15 -14 -5 -15 -4 -4 9 14 17 20 19 20 6z m153 -6 c-3 -9 -8 -14 -10 -11
-3 3 -2 9 2 15 9 16 15 13 8 -4z m-2613 -132 c0 -12 5 -25 10 -28 6 -3 10 -15
10 -26 0 -11 7 -22 15 -25 8 -4 13 -10 10 -14 -3 -5 1 -14 8 -22 8 -7 12 -19
9 -26 -2 -6 1 -12 8 -12 6 0 9 -4 5 -9 -3 -5 -1 -12 5 -16 5 -3 10 -11 10 -18
0 -20 -17 5 -59 88 -23 44 -41 91 -41 104 0 13 -11 39 -25 57 -14 18 -25 38
-25 45 0 7 13 -8 30 -32 16 -24 30 -54 30 -66z m2665 32 c20 -19 25 -34 25
-76 0 -44 -4 -55 -31 -80 -42 -39 -70 -37 -109 8 -29 33 -32 41 -27 86 3 37
11 56 27 69 32 26 86 23 115 -7z m-2298 -92 c-3 -10 -5 -2 -5 17 0 19 2 27 5
18 2 -10 2 -26 0 -35z m-307 -3 c0 -5 -2 -10 -4 -10 -3 0 -8 5 -11 10 -3 6 -1
10 4 10 6 0 11 -4 11 -10z m-313 -276 c-6 -20 -13 -32 -14 -27 -4 11 14 63 21
63 2 0 -1 -16 -7 -36z m2614 -156 c-9 -32 -9 -32 -10 17 0 28 3 61 7 75 6 22
7 19 10 -17 2 -22 -1 -56 -7 -75z m-2075 -10 l29 -33 -32 29 c-31 28 -38 36
-30 36 2 0 16 -15 33 -32z m-539 -15 c-3 -10 -5 -4 -5 12 0 17 2 24 5 18 2 -7
2 -21 0 -30z m-24 12 c4 -8 3 -16 -1 -19 -4 -3 -9 4 -9 15 -2 23 3 25 10 4z
m497 -25 c0 -5 -2 -10 -4 -10 -3 0 -8 5 -11 10 -3 6 -1 10 4 10 6 0 11 -4 11
-10z"/>
<path d="M7206 7355 c-9 -13 -16 -33 -16 -44 0 -11 -7 -37 -16 -58 -55 -130
-83 -170 -166 -236 -37 -30 -48 -45 -48 -67 0 -24 8 -34 48 -57 26 -15 54 -34
63 -43 22 -22 46 -96 52 -163 7 -75 29 -109 65 -105 29 3 43 25 82 133 38 105
58 140 109 188 27 26 54 47 59 47 19 0 43 39 40 65 -2 20 -14 33 -42 49 -80
43 -110 89 -119 182 -7 63 -23 113 -42 126 -21 15 -53 7 -69 -17z m74 -190
c20 -58 45 -90 97 -127 l45 -33 -28 -20 c-94 -67 -137 -130 -180 -267 -8 -27
-18 -48 -23 -48 -4 0 -13 30 -20 68 -17 86 -50 143 -106 183 -44 31 -56 49
-34 49 5 0 35 24 65 52 58 55 107 144 134 243 l14 50 11 -55 c6 -30 18 -73 25
-95z"/>
<path d="M5464 4870 c-50 -20 -135 -168 -153 -266 -8 -40 -6 -53 15 -92 13
-25 24 -51 24 -58 0 -7 8 -10 20 -7 11 3 20 7 20 10 0 3 -16 28 -35 57 -19 29
-35 58 -35 64 0 22 24 62 37 62 52 0 113 -72 116 -137 2 -64 -18 -96 -86 -137
-34 -20 -55 -36 -47 -36 27 1 110 60 131 93 42 67 -1 189 -79 225 -20 9 -39
18 -41 19 -8 5 53 117 81 149 37 42 69 44 97 5 38 -54 46 -107 33 -240 -19
-190 -66 -267 -195 -316 -69 -26 -121 -31 -146 -16 -12 8 -10 16 13 46 16 20
34 39 42 42 7 3 23 20 34 38 16 26 19 42 14 79 -8 58 -19 51 -15 -9 2 -41 -1
-48 -58 -109 -34 -36 -61 -72 -61 -80 0 -33 65 -47 125 -27 113 38 175 88 221
181 24 47 29 75 38 192 11 156 3 203 -44 250 -31 30 -34 31 -66 18z"/>
<path d="M5390 4713 c0 -4 15 -17 33 -28 45 -27 54 -30 40 -14 -16 19 -73 52
-73 42z"/>
<path d="M5514 4313 c-15 -20 -23 -33 -16 -29 13 8 56 66 49 66 -3 0 -17 -17
-33 -37z"/>
<path d="M5454 4238 l-29 -33 33 29 c17 17 32 31 32 33 0 8 -8 1 -36 -29z"/>
<path d="M386 2745 c-17 -13 -18 -19 -6 -97 26 -175 12 -247 -62 -313 -42 -38
-48 -48 -48 -83 0 -38 2 -40 48 -56 88 -32 152 -66 152 -82 0 -8 5 -12 11 -9
12 8 108 -88 129 -130 8 -16 25 -39 38 -50 12 -11 23 -32 24 -47 1 -15 5 -25
8 -23 4 2 14 -5 24 -16 25 -29 63 -21 95 20 14 19 21 32 15 28 -14 -8 -22 35
-30 160 -5 66 -2 90 12 122 10 23 21 41 26 41 4 0 8 7 8 15 0 15 38 41 53 37
5 -1 6 2 2 8 -3 5 -2 10 4 10 15 0 23 57 11 79 -6 12 -19 21 -28 21 -10 0 -27
7 -38 15 -10 8 -29 15 -41 15 -13 0 -23 4 -23 10 0 5 -11 12 -25 16 -14 3 -25
10 -25 14 0 5 -8 11 -19 15 -28 8 -131 114 -131 134 0 5 -3 11 -7 13 -12 5
-63 75 -63 86 0 5 -11 21 -25 36 -27 29 -60 33 -89 11z m103 -132 c6 -7 11
-17 11 -23 0 -5 4 -10 9 -10 5 0 12 -8 16 -18 7 -24 110 -126 155 -154 49 -31
109 -58 129 -58 9 0 23 -5 31 -10 12 -8 8 -17 -26 -52 -83 -87 -87 -100 -82
-266 2 -81 2 -138 0 -127 -3 11 -7 22 -11 25 -8 7 -51 68 -51 74 0 7 -54 70
-105 122 -48 48 -198 134 -234 134 -10 0 0 16 25 43 80 83 88 105 86 244 0 68
-4 134 -7 146 -3 12 5 4 19 -18 14 -22 30 -45 35 -52z"/>
<path d="M5819 2337 c7 -7 14 -8 21 -1 6 6 2 10 -12 11 -16 2 -18 -1 -9 -10z"/>
<path d="M6498 2343 c7 -3 16 -2 19 1 4 3 -2 6 -13 5 -11 0 -14 -3 -6 -6z"/>
<path d="M1685 2271 c-3 -5 -1 -12 5 -16 5 -3 10 -1 10 5 0 6 5 8 10 5 6 -3
10 -1 10 4 0 13 -27 14 -35 2z"/>
<path d="M5485 2270 c3 -5 8 -10 11 -10 2 0 4 5 4 10 0 6 -5 10 -11 10 -5 0
-7 -4 -4 -10z"/>
<path d="M5763 2265 c0 -8 4 -12 9 -9 5 3 6 10 3 15 -9 13 -12 11 -12 -6z"/>
<path d="M1560 2260 c-9 -6 -10 -10 -3 -10 6 0 15 5 18 10 8 12 4 12 -15 0z"/>
<path d="M1766 2197 c3 -10 9 -15 12 -12 3 3 0 11 -7 18 -10 9 -11 8 -5 -6z"/>
<path d="M2566 2202 c-3 -5 1 -9 9 -9 8 0 12 4 9 9 -3 4 -7 8 -9 8 -2 0 -6 -4
-9 -8z"/>
<path d="M130 2189 c0 -5 5 -7 10 -4 6 3 10 8 10 11 0 2 -4 4 -10 4 -5 0 -10
-5 -10 -11z"/>
<path d="M1496 2183 c-6 -14 -5 -15 5 -6 7 7 10 15 7 18 -3 3 -9 -2 -12 -12z"/>
<path d="M1890 2189 c0 -5 5 -7 10 -4 6 3 10 8 10 11 0 2 -4 4 -10 4 -5 0 -10
-5 -10 -11z"/>
<path d="M5690 2184 c0 -8 5 -12 10 -9 6 4 8 11 5 16 -9 14 -15 11 -15 -7z"/>
<path d="M1218 2183 c7 -3 16 -2 19 1 4 3 -2 6 -13 5 -11 0 -14 -3 -6 -6z"/>
<path d="M1691 2104 c0 -11 3 -14 6 -6 3 7 2 16 -1 19 -3 4 -6 -2 -5 -13z"/>
<path d="M2240 2110 c0 -5 5 -10 11 -10 5 0 7 5 4 10 -3 6 -8 10 -11 10 -2 0
-4 -4 -4 -10z"/>
<path d="M198 2103 c7 -3 16 -2 19 1 4 3 -2 6 -13 5 -11 0 -14 -3 -6 -6z"/>
<path d="M1620 2039 c0 -5 5 -7 10 -4 6 3 10 8 10 11 0 2 -4 4 -10 4 -5 0 -10
-5 -10 -11z"/>
<path d="M1895 2040 c-3 -5 -1 -10 4 -10 6 0 11 5 11 10 0 6 -2 10 -4 10 -3 0
-8 -4 -11 -10z"/>
<path d="M2025 2040 c-8 -13 4 -32 16 -25 12 8 12 35 0 35 -6 0 -13 -4 -16
-10z"/>
<path d="M5955 2040 c-4 -6 -3 -16 3 -22 6 -6 12 -6 17 2 4 6 3 16 -3 22 -6 6
-12 6 -17 -2z"/>
<path d="M6090 2035 c-7 -9 -8 -15 -2 -15 5 0 12 7 16 15 3 8 4 15 2 15 -2 0
-9 -7 -16 -15z"/>
<path d="M6225 2040 c-3 -5 1 -10 10 -10 9 0 13 5 10 10 -3 6 -8 10 -10 10 -2
0 -7 -4 -10 -10z"/>
<path d="M537 2026 c-4 -10 -1 -13 8 -9 8 3 12 9 9 14 -7 12 -11 11 -17 -5z"/>
<path d="M7450 2030 c-13 -8 -13 -10 2 -10 9 0 20 5 23 10 8 13 -5 13 -25 0z"/>
<path d="M405 2020 c3 -5 8 -10 11 -10 2 0 4 5 4 10 0 6 -5 10 -11 10 -5 0 -7
-4 -4 -10z"/>
<path d="M1088 2023 c7 -3 16 -2 19 1 4 3 -2 6 -13 5 -11 0 -14 -3 -6 -6z"/>
<path d="M6496 2018 c3 -5 10 -6 15 -3 13 9 11 12 -6 12 -8 0 -12 -4 -9 -9z"/>
<path d="M1559 1962 c11 -8 11 -10 0 -15 -10 -4 -8 -6 4 -6 21 -1 18 21 -4 27
-12 3 -12 2 0 -6z"/>
<path d="M1693 1955 c0 -8 4 -15 9 -15 4 0 8 7 8 15 0 8 -4 15 -8 15 -5 0 -9
-7 -9 -15z"/>
<path d="M1148 1943 c7 -3 16 -2 19 1 4 3 -2 6 -13 5 -11 0 -14 -3 -6 -6z"/>
<path d="M535 1879 c-4 -6 -5 -12 -2 -15 2 -3 7 2 10 11 7 17 1 20 -8 4z"/>
<path d="M7047 1883 c-4 -3 -7 -11 -7 -17 0 -6 5 -5 12 2 6 6 9 14 7 17 -3 3
-9 2 -12 -2z"/>
<path d="M6100 1870 c-9 -6 -10 -10 -3 -10 6 0 15 5 18 10 8 12 4 12 -15 0z"/>
<path d="M735 1801 c-3 -5 -2 -12 3 -15 5 -3 9 1 9 9 0 17 -3 19 -12 6z"/>
<path d="M6155 1800 c-3 -6 1 -7 9 -4 18 7 21 14 7 14 -6 0 -13 -4 -16 -10z"/>
<path d="M6701 1794 c0 -11 3 -14 6 -6 3 7 2 16 -1 19 -3 4 -6 -2 -5 -13z"/>
<path d="M6491 1563 c-1 -17 16 -25 25 -12 4 7 3 9 -4 5 -5 -3 -13 0 -15 6 -4
9 -6 10 -6 1z"/>
<path d="M7040 1549 c0 -5 5 -7 10 -4 6 3 10 8 10 11 0 2 -4 4 -10 4 -5 0 -10
-5 -10 -11z"/>
<path d="M6565 1481 c-3 -5 0 -13 6 -17 7 -4 9 -3 5 4 -3 5 0 13 6 15 9 4 10
6 1 6 -6 1 -14 -3 -18 -8z"/>
<path d="M7170 1410 c-12 -7 -10 -9 7 -7 12 0 19 5 17 9 -6 10 -6 10 -24 -2z"/>
<path d="M7251 1324 c0 -11 3 -14 6 -6 3 7 2 16 -1 19 -3 4 -6 -2 -5 -13z"/>
<path d="M400 1250 c0 -6 7 -10 15 -10 8 0 15 2 15 4 0 2 -7 6 -15 10 -8 3
-15 1 -15 -4z"/>
<path d="M815 1250 c-3 -5 -1 -10 4 -10 6 0 11 5 11 10 0 6 -2 10 -4 10 -3 0
-8 -4 -11 -10z"/>
<path d="M7448 1243 c6 -2 18 -2 25 0 6 3 1 5 -13 5 -14 0 -19 -2 -12 -5z"/>
<path d="M333 1170 c3 -16 21 -14 25 2 3 10 2 10 -6 -1 -7 -9 -11 -10 -15 -2
-4 7 -5 8 -4 1z"/>
<path d="M7526 1163 c-6 -14 -5 -15 5 -6 7 7 10 15 7 18 -3 3 -9 -2 -12 -12z"/>
<path d="M411 1084 c0 -11 3 -14 6 -6 3 7 2 16 -1 19 -3 4 -6 -2 -5 -13z"/>
<path d="M7460 930 c-9 -6 -10 -10 -3 -10 6 0 15 5 18 10 8 12 4 12 -15 0z"/>
<path d="M198 853 c7 -3 16 -2 19 1 4 3 -2 6 -13 5 -11 0 -14 -3 -6 -6z"/>
<path d="M745 390 c3 -5 8 -10 11 -10 2 0 4 5 4 10 0 6 -5 10 -11 10 -5 0 -7
-4 -4 -10z"/>
<path d="M541 314 c0 -11 3 -14 6 -6 3 7 2 16 -1 19 -3 4 -6 -2 -5 -13z"/>
<path d="M4171 5651 c-65 -23 -90 -46 -97 -93 l-6 -36 38 4 c22 3 72 9 112 14
112 15 194 12 305 -11 132 -27 210 -53 264 -90 54 -37 55 -24 2 38 -124 148
-230 193 -445 193 -89 -1 -132 -5 -173 -19z"/>
<path d="M3137 5601 c-48 -11 -108 -31 -133 -46 -59 -35 -178 -184 -160 -202
2 -3 20 6 38 20 104 78 261 115 495 118 l135 1 -6 31 c-3 16 -12 37 -19 45
-40 48 -207 64 -350 33z"/>
<path d="M4335 5113 c-65 -19 -110 -54 -135 -104 -20 -39 -10 -57 10 -19 9 18
80 70 95 70 3 0 5 -12 5 -26 0 -35 28 -91 54 -109 11 -9 43 -15 71 -15 41 0
56 5 72 23 31 34 43 62 43 102 l0 35 49 -25 c27 -13 52 -28 54 -32 9 -14 -31
-53 -70 -68 -31 -13 -33 -14 -8 -10 43 9 138 67 123 76 -8 5 -1 10 17 15 28 7
26 8 -38 41 -120 60 -242 77 -342 46z m150 -71 c0 -18 -20 -15 -23 4 -3 10 1
15 10 12 7 -3 13 -10 13 -16z m53 -14 c-6 -18 -28 -21 -28 -4 0 9 7 16 16 16
9 0 14 -5 12 -12z m-160 -31 c2 -10 -3 -17 -12 -17 -18 0 -29 16 -21 31 9 14
29 6 33 -14z"/>
<path d="M4010 4870 c0 -29 58 -166 77 -181 13 -11 14 -7 8 37 -12 85 -85 210
-85 144z"/>
<path d="M3170 5070 c-66 -9 -70 -11 -182 -63 -92 -42 -109 -57 -58 -49 29 4
35 -2 31 -35 -1 -7 6 -13 17 -13 10 0 38 -10 63 -21 55 -27 157 -35 241 -20
69 13 67 11 71 95 2 41 4 43 22 34 11 -6 35 -21 53 -35 40 -30 41 -14 2 31
-57 64 -147 90 -260 76z m-30 -89 c0 -24 9 -51 25 -75 l24 -36 -33 0 c-61 0
-162 48 -153 73 3 10 115 77 130 77 4 0 7 -17 7 -39z m148 2 c-2 -10 -10 -18
-18 -18 -8 0 -16 8 -18 18 -2 12 3 17 18 17 15 0 20 -5 18 -17z"/>
<path d="M3586 4858 c-20 -33 -46 -125 -46 -167 l0 -36 20 30 c22 32 60 145
60 176 0 26 -16 24 -34 -3z"/>
<path d="M4115 4211 c-3 -12 -19 -28 -35 -36 -25 -13 -34 -13 -77 0 -65 20
-116 19 -143 -3 -29 -23 -19 -48 12 -31 21 11 132 14 148 4 26 -16 127 61 107
81 -3 3 -8 -4 -12 -15z"/>
<path d="M3582 4174 c-34 -24 -26 -34 21 -28 39 6 48 3 78 -23 19 -17 45 -36
58 -43 l24 -12 -20 28 c-30 41 -54 61 -96 79 -44 18 -38 18 -65 -1z"/>
<path d="M4334 3893 c-18 -28 -101 -52 -240 -68 -222 -26 -355 -29 -523 -11
-198 21 -201 22 -208 58 -7 34 -27 32 -31 -4 -2 -20 3 -28 30 -38 18 -7 53
-25 78 -41 59 -36 172 -74 289 -95 160 -29 314 1 506 99 50 26 104 54 120 64
17 10 31 18 33 19 1 1 0 9 -4 18 -8 21 -36 21 -50 -1z m-119 -83 c-11 -18 -81
-49 -172 -76 -127 -39 -281 -39 -408 0 -85 26 -142 52 -133 62 3 2 64 -1 137
-8 130 -11 364 -1 501 22 66 11 82 11 75 0z"/>
<path d="M3970 3578 c-19 -5 -102 -8 -184 -6 -127 3 -144 1 -110 -9 63 -19
239 -15 304 7 58 19 50 25 -10 8z"/>
<path d="M2379 4753 c-22 -26 -17 -167 9 -228 25 -60 27 -55 7 22 -27 104 -16
193 23 193 18 0 101 -48 135 -78 18 -16 18 -17 0 -23 -16 -7 -15 -8 5 -8 27
-1 28 -14 2 -49 -23 -31 -41 -130 -22 -118 7 4 12 22 12 39 0 33 32 97 49 97
5 0 12 -7 15 -16 13 -35 5 -68 -29 -107 -20 -23 -38 -52 -42 -65 -9 -38 21
-88 72 -117 54 -32 73 -28 21 5 -45 27 -76 66 -76 96 0 12 18 44 41 70 38 44
41 51 36 92 -6 59 -50 117 -126 170 -67 45 -109 53 -132 25z"/>
<path d="M2450 4625 c-17 -20 -25 -108 -13 -129 7 -12 9 2 9 47 -1 40 4 70 13
80 7 10 11 17 8 17 -2 0 -10 -7 -17 -15z"/>
<path d="M2480 4357 c0 -17 30 -64 62 -93 22 -22 46 -33 76 -37 56 -7 54 8 -4
22 -46 12 -71 31 -111 86 -12 17 -23 26 -23 22z"/>
<path d="M2675 4160 c3 -5 15 -10 26 -10 11 0 17 5 14 10 -3 6 -15 10 -26 10
-11 0 -17 -4 -14 -10z"/>
<path d="M3465 2980 c-3 -6 1 -7 9 -4 18 7 21 14 7 14 -6 0 -13 -4 -16 -10z"/>
<path d="M4100 2859 c0 -5 5 -7 10 -4 6 3 10 8 10 11 0 2 -4 4 -10 4 -5 0 -10
-5 -10 -11z"/>
<path d="M3958 2853 c6 -2 18 -2 25 0 6 3 1 5 -13 5 -14 0 -19 -2 -12 -5z"/>
<path d="M4050 2830 c-8 -5 -10 -10 -5 -10 6 0 17 5 25 10 8 5 11 10 5 10 -5
0 -17 -5 -25 -10z"/>
<path d="M3570 2648 c10 -48 134 -352 137 -341 4 12 -21 88 -83 245 -47 123
-70 162 -54 96z"/>
<path d="M3207 2704 c-4 -4 -7 -17 -7 -28 1 -19 1 -20 11 -3 11 19 8 43 -4 31z"/>
<path d="M3177 2411 c-3 -13 -1 -18 9 -14 7 2 10 11 7 19 -7 19 -10 18 -16 -5z"/>
<path d="M3198 2390 c-10 -9 -18 -21 -18 -26 0 -5 5 -2 10 6 9 13 10 13 10 0
1 -8 6 -4 11 9 12 30 9 33 -13 11z"/>
<path d="M3007 2333 c-2 -5 -1 -17 3 -27 6 -19 7 -19 12 2 6 21 -6 40 -15 25z"/>
<path d="M3073 2313 c0 -7 4 -13 8 -13 4 0 9 6 12 13 3 8 0 14 -7 14 -7 0 -13
-6 -13 -14z"/>
<path d="M2980 2209 c0 -5 5 -7 10 -4 6 3 10 8 10 11 0 2 -4 4 -10 4 -5 0 -10
-5 -10 -11z"/>
<path d="M3277 2033 c-4 -3 -7 -11 -7 -17 0 -6 5 -5 12 2 6 6 9 14 7 17 -3 3
-9 2 -12 -2z"/>
<path d="M3315 1969 c-4 -6 -5 -12 -2 -15 2 -3 7 2 10 11 7 17 1 20 -8 4z"/>
<path d="M3315 1893 c15 -36 25 -52 25 -41 0 11 -30 78 -35 78 -3 0 2 -17 10
-37z"/>
<path d="M3341 1923 c0 -4 4 -17 9 -28 8 -19 9 -19 9 2 1 12 -3 25 -9 28 -5 3
-10 3 -9 -2z"/>
<path d="M4164 1155 c-4 -8 -10 -12 -15 -9 -5 3 -6 -2 -3 -10 7 -20 20 -13 27
14 6 23 -1 27 -9 5z"/>
<path d="M4070 1060 l-25 -18 27 -7 c35 -9 70 -3 76 13 3 9 -3 10 -23 2 -34
-13 -58 -13 -50 0 4 6 10 8 14 6 4 -3 13 -1 20 3 10 7 10 9 -1 14 -8 3 -25 -3
-38 -13z"/>
<path d="M4035 1010 c3 -5 10 -10 16 -10 5 0 9 5 9 10 0 6 -7 10 -16 10 -8 0
-12 -4 -9 -10z"/>
<path d="M4078 978 c9 -9 15 -9 24 0 9 9 7 12 -12 12 -19 0 -21 -3 -12 -12z"/>
<path d="M4160 950 c0 -5 5 -10 10 -10 6 0 10 5 10 10 0 6 -4 10 -10 10 -5 0
-10 -4 -10 -10z"/>
<path d="M3912 829 c-13 -21 -7 -43 6 -23 4 6 15 13 25 17 22 8 22 27 -1 27
-9 0 -23 -9 -30 -21z"/>
<path d="M3800 825 c-9 -10 -9 -15 -1 -15 6 0 11 6 11 13 0 8 3 7 10 -3 5 -8
12 -12 15 -9 3 4 -1 11 -8 18 -11 9 -17 8 -27 -4z"/>
<path d="M3624 539 c-13 -15 -16 -24 -8 -36 18 -29 31 -25 26 7 -9 63 64 49
84 -16 11 -35 12 -36 13 -11 1 34 -39 77 -72 77 -13 0 -32 -9 -43 -21z"/>
<path d="M2825 2190 c-3 -5 -1 -10 4 -10 6 0 11 5 11 10 0 6 -2 10 -4 10 -3 0
-8 -4 -11 -10z"/>
<path d="M2780 2143 c-23 -45 -23 -49 -1 -24 12 13 21 29 21 37 0 21 -5 17
-20 -13z"/>
<path d="M2489 2041 c-24 -15 -60 -45 -79 -66 l-35 -38 41 29 c46 33 130 104
123 104 -3 0 -25 -13 -50 -29z"/>
<path d="M2706 2048 c-20 -28 -20 -39 -1 -32 8 4 12 10 9 15 -3 6 0 16 6 24 7
8 10 15 7 15 -3 0 -13 -10 -21 -22z"/>
<path d="M2606 1894 c-23 -23 -20 -30 4 -9 11 10 20 20 20 22 0 7 -9 2 -24
-13z"/>
<path d="M2557 1815 c-9 -19 -15 -35 -12 -35 7 0 37 61 33 66 -3 2 -12 -12
-21 -31z"/>
<path d="M2834 1550 c0 -74 1 -105 3 -67 2 37 2 97 0 135 -2 37 -3 6 -3 -68z"/>
<path d="M4207 1538 c-3 -9 8 -13 36 -14 24 -1 34 1 26 6 -7 5 -17 6 -21 3 -5
-2 -15 0 -22 6 -10 9 -15 8 -19 -1z"/>
<path d="M4290 1541 c0 -5 5 -13 10 -16 6 -3 10 -2 10 4 0 5 -4 13 -10 16 -5
3 -10 2 -10 -4z"/>
<path d="M2852 1470 c0 -19 2 -27 5 -17 2 9 2 25 0 35 -3 9 -5 1 -5 -18z"/>
<path d="M4329 1452 c-11 -14 -11 -15 1 -5 9 8 19 9 30 3 13 -7 21 -5 31 8 11
14 11 15 -1 5 -9 -8 -19 -9 -30 -3 -13 7 -21 5 -31 -8z"/>
<path d="M4220 1451 c0 -5 6 -12 13 -14 6 -3 2 -6 -9 -6 -23 -1 -48 -24 -37
-34 3 -4 -2 -9 -11 -13 -25 -10 -19 -32 14 -49 35 -18 64 -19 93 -3 22 11 83
12 122 2 15 -4 16 -3 6 4 -15 11 -6 36 10 27 5 -4 6 2 2 12 -6 16 -4 16 18 -2
13 -11 19 -13 12 -6 -6 7 -9 21 -6 30 4 14 3 14 -6 1 -8 -12 -12 -10 -20 10
-9 20 -11 21 -10 5 1 -11 1 -25 0 -30 -1 -13 -91 -7 -91 6 0 5 -7 9 -16 9 -8
0 -20 14 -25 30 -8 22 -17 30 -35 30 -13 0 -24 -4 -24 -9z"/>
<path d="M5463 1385 c-3 -9 -3 -18 -1 -21 3 -3 8 4 11 16 6 23 -1 27 -10 5z"/>
<path d="M5476 1351 c-4 -7 -5 -15 -2 -18 9 -9 19 4 14 18 -4 11 -6 11 -12 0z"/>
<path d="M5502 1305 c0 -16 4 -43 8 -60 7 -29 8 -28 8 10 0 22 -3 49 -8 60 -7
17 -9 15 -8 -10z"/>
<path d="M1446 1226 c-4 -43 -5 -80 -2 -83 6 -6 19 120 14 143 -2 10 -7 -16
-12 -60z"/>
<path d="M4227 1273 c-4 -3 -7 -11 -7 -17 0 -6 5 -5 12 2 6 6 9 14 7 17 -3 3
-9 2 -12 -2z"/>
<path d="M3395 1240 c10 -11 20 -20 23 -20 3 0 -3 9 -13 20 -10 11 -20 20 -23
20 -3 0 3 -9 13 -20z"/>
<path d="M4535 1240 c3 -5 8 -10 11 -10 2 0 4 5 4 10 0 6 -5 10 -11 10 -5 0
-7 -4 -4 -10z"/>
<path d="M4220 1229 c0 -5 5 -7 10 -4 6 3 10 8 10 11 0 2 -4 4 -10 4 -5 0 -10
-5 -10 -11z"/>
<path d="M3480 1180 c0 -5 15 -17 33 -26 l32 -17 -24 27 c-25 27 -41 33 -41
16z"/>
<path d="M5540 1164 c0 -10 5 -26 10 -34 8 -11 9 -7 4 15 -8 37 -14 45 -14 19z"/>
<path d="M4572 1144 c-7 -8 -8 -14 -3 -14 10 0 25 19 20 25 -2 1 -10 -3 -17
-11z"/>
<path d="M4596 1133 c-6 -14 -5 -15 5 -6 7 7 10 15 7 18 -3 3 -9 -2 -12 -12z"/>
<path d="M4300 1060 c-10 -18 -8 -20 19 -20 16 0 33 -4 36 -10 3 -5 15 -10 26
-10 14 0 19 7 19 30 0 29 -2 30 -45 30 -34 0 -47 -5 -55 -20z"/>
<path d="M1441 1054 c0 -11 3 -14 6 -6 3 7 2 16 -1 19 -3 4 -6 -2 -5 -13z"/>
<path d="M4518 1023 c6 -2 18 -2 25 0 6 3 1 5 -13 5 -14 0 -19 -2 -12 -5z"/>
<path d="M4320 1004 c0 -9 5 -14 12 -12 18 6 21 28 4 28 -9 0 -16 -7 -16 -16z"/>
<path d="M4530 1006 c0 -2 7 -6 15 -10 8 -3 15 -1 15 4 0 6 -7 10 -15 10 -8 0
-15 -2 -15 -4z"/>
<path d="M4653 973 c-8 -17 -10 -20 -7 -5 7 28 -6 28 -29 1 -17 -19 -17 -20 0
-17 10 2 17 -2 16 -9 -2 -7 1 -13 5 -13 12 0 35 46 30 60 -2 6 -9 -1 -15 -17z"/>
<path d="M1176 940 c4 -14 13 -38 20 -55 11 -24 13 -25 8 -5 -4 14 -13 39 -20
55 -11 24 -13 25 -8 5z"/>
<path d="M4415 947 c-10 -8 -14 -16 -9 -19 5 -3 17 3 27 14 20 21 9 24 -18 5z"/>
<path d="M4420 914 c-14 -8 -18 -14 -10 -14 8 1 24 7 34 15 24 19 10 18 -24
-1z"/>
<path d="M1423 865 c0 -33 2 -45 4 -27 2 18 2 45 0 60 -2 15 -4 0 -4 -33z"/>
<path d="M6555 909 c-4 -6 -5 -12 -2 -15 2 -3 7 2 10 11 7 17 1 20 -8 4z"/>
<path d="M1442 890 c0 -14 2 -19 5 -12 2 6 2 18 0 25 -3 6 -5 1 -5 -13z"/>
<path d="M1591 903 c-1 -6 -4 -20 -7 -30 -5 -17 -5 -17 6 0 6 10 9 23 6 30 -3
9 -5 9 -5 0z"/>
<path d="M1210 843 c0 -4 5 -15 10 -23 8 -13 10 -13 10 2 0 9 -4 20 -10 23 -5
3 -10 3 -10 -2z"/>
<path d="M4085 790 c-3 -5 -2 -10 4 -10 5 0 13 5 16 10 3 6 2 10 -4 10 -5 0
-13 -4 -16 -10z"/>
<path d="M4170 789 c0 -5 5 -9 11 -9 6 0 8 -7 5 -15 -5 -14 -1 -13 24 1 27 16
32 34 9 34 -6 0 -7 -5 -3 -12 5 -7 3 -8 -7 -2 -20 12 -39 14 -39 3z"/>
<path d="M4128 783 c6 -2 18 -2 25 0 6 3 1 5 -13 5 -14 0 -19 -2 -12 -5z"/>
<path d="M4134 762 c-8 -5 -7 -11 4 -22 14 -13 15 -12 9 4 -6 14 -4 17 8 12 9
-3 13 -2 10 4 -7 12 -16 12 -31 2z"/>
<path d="M6489 715 c-1 -11 -1 -24 0 -28 1 -5 -6 -24 -15 -43 -13 -27 -19 -32
-26 -22 -7 9 -8 8 -4 -6 4 -11 2 -22 -4 -26 -7 -5 -6 -11 5 -20 13 -11 14 -10
9 5 -6 13 -4 16 6 10 8 -5 11 -3 8 6 -3 8 3 25 12 39 21 31 30 74 19 92 -6 10
-9 8 -10 -7z"/>
<path d="M3437 611 c-9 -16 -17 -33 -17 -38 0 -4 9 7 21 26 11 18 18 35 17 37
-2 2 -12 -10 -21 -25z"/>
<path d="M1290 576 c0 -8 4 -17 9 -20 5 -4 7 3 4 14 -6 23 -13 26 -13 6z"/>
<path d="M6061 539 c-2 -38 23 -136 40 -160 21 -30 25 -44 8 -33 -6 3 -3 -8 5
-25 9 -17 19 -31 21 -31 10 0 -3 61 -19 85 -9 14 -25 60 -35 102 -11 43 -20
71 -20 62z"/>
<path d="M6403 538 c-12 -15 -27 -58 -19 -58 6 0 37 62 32 67 -2 2 -8 -2 -13
-9z"/>
<path d="M3429 532 c-1 -4 -3 -25 -5 -47 -2 -22 -6 -50 -9 -62 -3 -13 -1 -23
5 -23 5 0 10 7 10 15 0 9 6 28 14 43 27 53 28 69 6 75 -11 3 -20 2 -21 -1z
m18 -44 c-3 -8 -6 -5 -6 6 -1 11 2 17 5 13 3 -3 4 -12 1 -19z"/>
<path d="M3404 475 c-3 -8 -4 -20 -2 -27 3 -7 7 -1 10 15 6 29 1 36 -8 12z"/>
<path d="M1310 454 c0 -17 7 -37 15 -44 19 -16 19 -2 0 41 l-14 34 -1 -31z"/>
<path d="M1180 405 c0 -8 2 -15 4 -15 2 0 6 7 10 15 3 8 1 15 -4 15 -6 0 -10
-7 -10 -15z"/>
<path d="M1480 411 c0 -6 4 -13 10 -16 6 -3 7 1 4 9 -7 18 -14 21 -14 7z"/>
<path d="M6351 394 c-12 -14 -12 -17 0 -25 13 -8 5 -13 -15 -10 -5 1 -6 -5 -2
-14 3 -9 6 -22 6 -28 1 -7 7 2 14 18 7 17 11 34 9 38 -3 4 1 14 7 22 17 20 -1
18 -19 -1z"/>
<path d="M1200 380 c0 -5 3 -9 8 -9 18 3 22 -2 12 -21 -9 -16 -8 -18 5 -14 18
7 19 26 3 42 -15 15 -28 16 -28 2z"/>
<path d="M1321 374 c0 -11 3 -14 6 -6 3 7 2 16 -1 19 -3 4 -6 -2 -5 -13z"/>
<path d="M6171 348 c2 -30 3 -35 6 -15 2 15 9 27 14 27 5 0 9 7 9 15 0 8 -7
15 -15 15 -11 0 -15 -11 -14 -42z"/>
<path d="M6731 298 c-41 -43 -68 -78 -60 -76 7 2 17 11 21 21 4 9 12 17 18 17
6 0 8 -5 4 -12 -5 -7 -3 -8 5 -4 7 5 10 14 7 21 -2 7 5 17 17 23 17 8 79 96
65 91 -2 0 -37 -37 -77 -81z"/>
<path d="M1184 349 c-3 -6 -2 -15 3 -20 5 -5 9 -1 9 11 0 23 -2 24 -12 9z"/>
<path d="M6546 335 c-3 -9 -6 -22 -5 -28 0 -7 5 -1 10 12 5 13 8 26 5 28 -2 2
-6 -3 -10 -12z"/>
<path d="M6300 331 c0 -6 5 -13 11 -16 6 -4 8 -13 5 -21 -3 -8 -1 -14 4 -14 6
0 10 14 10 30 0 20 -5 30 -15 30 -8 0 -15 -4 -15 -9z"/>
<path d="M6175 270 c-3 -5 -1 -10 4 -10 6 0 11 5 11 10 0 6 -2 10 -4 10 -3 0
-8 -4 -11 -10z"/>
<path d="M1458 235 c2 -19 6 -35 8 -35 2 0 4 16 4 35 0 19 -4 35 -8 35 -4 0
-6 -16 -4 -35z"/>
<path d="M6246 252 c-3 -4 4 -9 15 -9 23 -2 25 3 4 10 -8 4 -16 3 -19 -1z"/>
<path d="M6602 167 c-23 -23 -42 -46 -42 -51 0 -4 7 0 16 8 8 9 21 16 28 16 8
0 19 7 26 15 10 12 10 15 0 15 -8 0 -10 3 -6 8 4 4 13 7 19 7 5 0 12 6 15 13
8 24 -14 12 -56 -31z m18 -7 c0 -5 -5 -10 -11 -10 -5 0 -7 5 -4 10 3 6 8 10
11 10 2 0 4 -4 4 -10z"/>
<path d="M6665 177 c-5 -7 -11 -19 -13 -27 -1 -10 3 -8 13 4 8 11 15 23 15 28
0 11 -3 10 -15 -5z"/>
<path d="M1467 111 c-4 -17 -3 -21 5 -13 5 5 8 16 6 23 -3 8 -7 3 -11 -10z"/>
<path d="M1108 56 c14 -30 28 -53 30 -51 6 5 -34 92 -46 99 -6 3 1 -18 16 -48z"/>
<path d="M6396 97 c-16 -12 -16 -13 3 -13 11 0 18 3 15 7 -2 4 2 10 8 12 7 3
8 6 2 6 -5 1 -18 -5 -28 -12z"/>
<path d="M1150 21 c0 -5 7 -12 16 -15 14 -5 15 -4 4 9 -14 17 -20 19 -20 6z"/>
<path d="M6130 10 c0 -5 5 -10 10 -10 6 0 10 5 10 10 0 6 -4 10 -10 10 -5 0
-10 -4 -10 -10z"/>
</g>
</svg>
