<svg xmlns="http://www.w3.org/2000/svg" direction="ltr" width="1024" height="1024" viewBox="3148 2617.640775466348 1024 1024" stroke-linecap="round" stroke-linejoin="round" data-color-mode="light" class="tl-container tl-theme__force-sRGB tl-theme__light" style="background-color: transparent;"><defs/><g transform="matrix(1, 0, 0, 1, 3148, 2617.6408)" opacity="1"><g transform="scale(1, 1)"><g>
<g xmlns="http://www.w3.org/2000/svg" stroke-width="2.00" fill="none" stroke-linecap="butt">
<path stroke="#8e8584" vector-effect="non-scaling-stroke" d="   M 936.53 1024.00   Q 926.53 997.75 919.79 983.21   Q 911.20 964.72 902.21 944.73   C 893.74 925.88 883.00 909.31 867.73 895.53   Q 866.03 893.99 864.18 893.21   A 2.08 2.05 -6.8 0 1 863.38 892.59   Q 861.46 890.19 857.17 887.60   Q 849.98 883.26 842.37 880.15   Q 830.20 875.18 828.30 874.48   Q 802.89 865.07 787.09 859.77   C 785.48 859.23 783.57 858.21 782.05 857.69   Q 752.79 847.68 738.06 842.17   Q 737.73 842.04 693.88 826.85   Q 683.63 823.30 651.35 810.72   Q 645.61 808.48 643.16 808.59   Q 638.95 808.79 636.21 812.87   A 1.17 1.16 29.2 0 1 634.76 813.28   Q 629.55 810.94 626.72 809.55   C 611.16 801.88 602.27 784.80 602.33 768.00   Q 602.47 729.58 602.33 679.35   A 0.89 0.89 0.0 0 1 602.81 678.56   Q 615.27 672.39 627.09 664.26   Q 629.07 662.91 631.29 661.06   C 634.81 658.14 638.80 655.17 641.52 652.68   Q 668.44 628.06 681.61 593.61   Q 685.95 582.28 689.28 569.89   A 1.02 1.01 7.4 0 1 690.26 569.14   L 696.73 569.16   A 3.14 2.81 -48.1 0 0 697.37 569.09   Q 697.98 568.84 702.90 568.32   Q 709.00 567.67 715.12 565.11   Q 717.52 564.10 719.64 563.38   Q 722.06 562.55 724.05 561.22   C 733.20 555.11 741.28 547.56 747.96 538.50   Q 752.04 532.97 754.88 528.18   Q 761.84 516.43 766.00 501.85   Q 769.21 490.58 768.94 479.47   C 768.48 461.01 759.08 445.84 743.92 434.83   Q 742.26 433.63 740.45 433.09   A 1.62 1.62 0.0 0 1 739.37 431.06   Q 746.15 409.19 749.33 386.44   Q 752.37 364.70 753.69 346.91   A 0.80 0.79 3.4 0 1 754.52 346.18   Q 759.32 346.41 761.09 342.16   A 2.01 1.98 54.5 0 0 761.24 341.22   Q 760.88 337.21 760.00 319.38   Q 759.41 307.32 757.89 297.72   Q 753.17 267.95 741.82 240.90   Q 733.57 221.26 725.42 208.04   C 714.71 190.68 702.23 174.71 687.41 162.09   Q 671.59 148.64 654.36 138.91   C 643.37 132.72 632.98 126.81 620.40 120.95   Q 612.22 117.14 593.74 111.36   Q 575.72 105.73 560.60 102.01   Q 542.75 97.62 530.67 96.39   Q 488.56 92.12 445.71 98.99   Q 435.06 100.69 425.15 103.45   C 419.34 105.07 415.12 107.09 408.86 109.59   C 398.34 113.79 389.47 120.20 378.14 128.15   Q 372.91 131.82 364.94 139.42   Q 357.90 146.14 353.88 154.51   A 0.37 0.37 0.0 0 1 353.17 154.37   Q 352.51 141.43 355.56 128.28   C 356.57 123.89 357.78 117.24 351.11 116.71   C 348.78 116.53 347.24 116.21 345.73 117.23   C 341.43 120.12 339.31 125.90 338.00 130.74   C 334.33 144.35 333.08 158.70 335.90 172.35   A 0.44 0.44 0.0 0 1 335.42 172.88   Q 321.22 171.37 306.76 174.04   Q 295.46 176.13 285.56 182.82   Q 281.27 185.73 281.52 189.98   Q 281.71 193.26 283.90 194.65   C 288.05 197.31 291.03 194.62 295.67 194.39   Q 302.20 194.07 308.74 193.28   Q 309.66 193.17 311.68 193.35   A 0.44 0.43 24.1 0 1 311.96 194.08   Q 295.63 211.67 286.26 233.68   Q 273.10 264.57 264.89 299.32   Q 261.30 314.48 258.88 328.08   A 2.62 2.61 28.4 0 0 259.55 330.31   L 262.40 333.35   A 1.90 1.90 0.0 0 1 262.91 334.51   C 263.97 342.52 266.47 358.48 268.54 373.40   Q 272.22 399.87 277.75 422.75   Q 279.12 428.44 280.75 432.90   A 0.64 0.62 -27.1 0 1 280.50 433.65   C 265.93 443.09 254.86 459.55 253.85 477.03   Q 253.20 488.37 255.90 498.89   Q 262.65 525.21 280.75 545.75   C 286.60 552.38 295.03 559.82 303.63 563.49   Q 310.03 566.23 314.48 567.25   Q 321.96 568.96 324.77 568.68   Q 325.72 568.59 327.22 568.87   C 329.22 569.24 330.57 569.20 332.31 568.92   A 1.20 1.20 0.0 0 1 333.67 569.82   Q 336.94 583.29 342.17 596.35   C 355.76 630.31 381.63 658.62 414.13 675.35   Q 417.02 676.84 419.94 678.59   A 0.94 0.94 0.0 0 1 420.40 679.36   Q 420.58 684.53 420.56 689.50   Q 420.43 720.74 420.61 749.75   Q 420.70 764.14 420.58 768.38   Q 420.36 775.87 418.58 781.29   C 415.05 792.01 408.63 801.93 399.03 807.79   Q 393.47 811.19 387.24 813.53   A 0.54 0.54 0.0 0 1 386.57 813.29   C 383.68 808.21 377.56 807.69 372.70 810.10   Q 370.71 811.09 369.52 811.56   Q 344.10 821.47 332.89 825.39   Q 290.64 840.20 256.33 852.12   C 247.32 855.25 234.71 859.98 218.76 865.53   Q 199.63 872.18 180.84 879.83   Q 172.60 883.18 164.02 888.27   Q 161.50 889.76 160.13 891.49   A 4.44 4.32 -84.7 0 1 158.84 892.59   C 154.35 895.14 151.60 898.31 146.73 903.33   Q 141.87 908.34 139.20 912.06   Q 128.19 927.44 122.48 940.01   Q 104.89 978.72 102.53 983.75   Q 100.89 987.23 99.83 989.99   C 97.75 995.40 95.21 1000.75 93.25 1005.62   Q 89.58 1014.76 85.90 1024.00"/>
<path stroke="#616975" vector-effect="non-scaling-stroke" d="   M 923.89 1024.00   Q 916.70 1005.59 901.25 971.23   Q 892.90 952.68 892.39 951.66   Q 889.93 946.83 887.96 942.62   C 883.70 933.47 878.39 925.70 872.25 917.76   Q 861.80 904.24 847.50 895.84   Q 842.09 892.67 830.03 887.98   Q 817.59 883.13 812.12 881.15   Q 780.43 869.68 690.67 838.28   Q 667.57 830.20 651.07 823.19   Q 648.81 822.23 646.90 821.13   A 1.11 1.11 0.0 0 0 645.42 821.48   Q 640.45 829.02 633.09 835.10   Q 619.66 846.20 604.36 852.86   C 587.70 860.10 570.72 865.42 552.38 867.63   Q 537.40 869.43 525.26 869.75   Q 516.96 869.96 494.80 869.48   Q 487.25 869.31 478.22 868.47   Q 468.00 867.52 461.76 866.23   Q 451.00 864.01 445.61 862.58   Q 438.31 860.65 423.31 854.92   Q 413.01 850.98 400.48 843.53   Q 393.05 839.10 386.56 833.29   C 383.06 830.15 380.13 826.05 376.92 821.69   A 1.13 1.13 0.0 0 0 375.46 821.37   Q 372.16 823.22 368.68 824.65   Q 364.04 826.56 349.28 832.15   Q 339.70 835.77 329.74 839.21   Q 270.94 859.54 210.02 881.24   Q 207.72 882.06 200.50 884.87   C 192.87 887.84 184.36 890.95 177.07 894.72   Q 170.14 898.32 164.33 903.01   Q 157.27 908.73 149.26 919.25   Q 140.59 930.65 137.39 937.14   Q 132.34 947.37 127.10 958.07   Q 126.49 959.32 125.96 961.25   A 4.68 4.60 66.3 0 1 125.71 961.91   C 119.94 974.21 115.11 984.24 109.65 997.25   Q 104.05 1010.61 98.46 1024.00"/>
<path stroke="#896a5d" vector-effect="non-scaling-stroke" d="   M 344.65 353.88   C 343.90 359.60 343.62 365.32 342.51 372.00   Q 338.06 398.66 330.79 426.51   A 0.45 0.45 0.0 0 0 331.39 427.04   C 335.30 425.40 339.32 425.03 343.85 423.92   Q 358.32 420.39 374.00 419.71   Q 376.03 419.63 376.93 419.32   A 1.68 1.66 38.3 0 1 377.65 419.24   Q 378.58 419.35 391.25 418.62   Q 410.74 417.50 444.94 418.78   Q 446.05 418.82 453.75 419.32   Q 466.40 420.14 480.36 422.69   A 2.98 2.95 66.7 0 1 481.47 423.14   Q 489.99 428.93 491.13 438.79   A 0.68 0.68 0.0 0 0 492.14 439.30   C 494.09 438.20 495.71 438.18 497.73 437.79   C 504.81 436.43 512.97 435.77 520.12 436.99   C 523.92 437.63 527.69 437.83 531.28 439.18   A 0.40 0.40 0.0 0 0 531.81 438.83   Q 532.16 432.05 537.40 426.30   Q 540.15 423.29 542.38 422.48   A 2.19 2.13 36.3 0 1 543.25 422.36   Q 544.59 422.46 549.51 421.56   Q 559.52 419.75 576.74 418.87   Q 607.82 417.28 638.51 418.82   Q 641.15 418.95 642.35 419.15   C 645.17 419.62 648.09 419.21 651.15 419.84   Q 652.05 420.02 654.88 420.14   Q 667.44 420.67 680.45 424.04   Q 685.41 425.32 690.61 426.76   A 0.34 0.33 -0.4 0 0 691.02 426.35   Q 683.09 398.26 676.84 367.89   C 676.33 365.39 675.09 361.36 674.43 358.30   A 1.84 1.81 -77.2 0 0 673.79 357.27   C 672.42 356.16 670.23 355.60 668.73 354.62   C 660.82 349.48 652.82 344.66 645.37 338.38   Q 636.38 330.80 630.65 326.21   A 0.60 0.59 15.1 0 0 629.69 326.76   Q 629.83 327.73 630.65 329.83   Q 631.35 331.62 635.39 340.88   Q 635.67 341.50 636.07 344.28   A 2.29 2.26 51.4 0 1 635.96 345.33   Q 633.35 352.71 625.21 350.36   Q 619.08 348.60 612.64 345.58   Q 598.25 338.83 583.83 329.42   C 577.65 325.38 570.29 321.20 565.76 318.76   A 0.55 0.55 0.0 0 0 564.98 319.44   C 567.22 325.26 570.09 330.49 570.45 336.44   A 2.10 2.04 58.6 0 1 570.20 337.54   Q 566.69 344.04 560.12 342.55   Q 552.72 340.88 543.25 336.00   C 532.38 330.41 524.12 325.83 515.18 319.58   Q 493.61 304.48 485.78 298.97   Q 474.83 291.25 462.45 286.12   A 1.12 1.12 0.0 0 0 460.90 287.19   Q 460.94 288.39 461.69 290.28   Q 468.80 308.25 478.23 322.46   C 479.61 324.55 480.69 326.75 482.24 329.64   A 3.42 3.30 25.6 0 1 482.56 330.50   Q 483.73 335.88 479.49 337.58   C 474.45 339.60 468.49 334.55 464.96 331.62   Q 455.38 323.69 446.19 314.14   Q 428.64 295.92 409.39 281.19   C 403.80 276.91 395.81 271.62 388.66 272.71   Q 385.43 273.21 381.40 276.33   C 374.89 281.38 370.69 288.15 368.25 295.97   Q 364.17 309.07 362.51 321.99   Q 359.99 341.52 360.49 360.30   Q 360.57 363.58 359.53 365.00   C 356.52 369.08 351.01 368.79 348.43 364.32   C 346.47 360.92 346.04 357.06 345.17 353.85   A 0.27 0.26 41.4 0 0 344.65 353.88"/>
<path stroke="#8e8584" vector-effect="non-scaling-stroke" d="   M 348.83 489.15   Q 348.14 495.36 342.51 495.92"/>
<path stroke="#896a5d" vector-effect="non-scaling-stroke" d="   M 342.51 495.92   C 336.26 493.77 337.70 488.79 336.94 483.61   Q 334.82 469.12 333.92 454.34   A 1.38 1.37 -14.1 0 0 331.97 453.18   Q 329.86 454.14 327.81 453.97   A 1.70 1.69 -3.9 0 0 326.02 456.02   C 326.42 457.85 326.42 459.99 326.79 462.30   Q 329.42 478.90 339.48 539.75   Q 342.20 556.23 346.71 572.50   C 351.26 588.90 358.05 605.31 367.59 619.09   Q 385.62 645.12 413.24 661.26   C 439.78 676.77 469.07 685.45 499.71 686.87   C 531.50 688.34 561.89 683.85 591.00 670.87   Q 621.94 657.06 642.06 635.58   Q 663.27 612.92 673.26 582.02   Q 679.77 561.90 683.48 539.50   Q 689.62 502.35 696.25 461.49   Q 696.56 459.61 696.88 454.69   A 0.54 0.54 0.0 0 0 696.32 454.11   Q 692.94 454.19 689.72 452.85   A 0.43 0.42 13.4 0 0 689.13 453.21   Q 688.05 469.16 685.88 484.28   C 685.53 486.71 685.94 489.72 684.98 491.83   Q 683.74 494.55 680.50 496.11"/>
<path stroke="#8e8584" vector-effect="non-scaling-stroke" d="   M 680.50 496.11   Q 673.48 495.09 674.25 486.57"/>
<path stroke="#8b726a" vector-effect="non-scaling-stroke" d="   M 674.25 486.57   Q 676.82 465.47 677.57 456.75   Q 677.77 454.51 678.05 443.46   A 3.39 3.21 39.4 0 0 677.93 442.51   C 677.12 439.52 676.17 435.00 672.98 434.35   Q 658.33 431.38 642.50 430.75   Q 619.57 429.84 608.00 429.80   Q 602.93 429.78 585.75 430.23   Q 567.77 430.69 560.31 431.91   Q 557.46 432.38 556.30 432.43   C 553.30 432.55 550.42 433.90 547.72 433.45   A 1.82 1.79 -61.5 0 0 546.18 433.92   C 543.49 436.48 543.34 438.05 543.04 441.84   Q 542.86 444.05 542.96 446.30   Q 543.59 460.24 543.98 474.00   Q 544.04 476.01 544.18 478.07"/>
<path stroke="#8e8584" vector-effect="non-scaling-stroke" d="   M 544.18 478.07   Q 544.32 492.02 544.57 497.01   Q 544.92 503.89 537.40 503.27"/>
<path stroke="#896a5d" vector-effect="non-scaling-stroke" d="   M 537.40 503.27   Q 532.92 501.17 532.81 496.51   Q 532.45 480.39 532.09 463.51   Q 531.93 456.17 531.53 452.16   A 0.95 0.94 -82.3 0 0 530.94 451.38   Q 511.28 443.78 491.65 451.51   A 0.71 0.71 0.0 0 0 491.20 452.14   Q 490.39 474.78 490.10 495.62   Q 490.04 500.69 485.68 503.48"/>
<path stroke="#8e8584" vector-effect="non-scaling-stroke" d="   M 485.68 503.48   Q 478.16 504.15 478.41 495.68"/>
<path stroke="#8b726a" vector-effect="non-scaling-stroke" d="   M 478.41 495.68   Q 478.43 494.12 478.47 492.47   Q 478.98 471.84 479.87 445.83   C 479.94 443.86 479.76 442.01 479.65 439.56   Q 479.51 436.67 476.87 434.20   A 2.03 1.99 -19.0 0 0 475.78 433.68   Q 454.08 430.53 445.00 430.46   C 439.65 430.42 431.07 429.87 425.66 429.85   Q 403.22 429.73 378.86 430.81   Q 374.21 431.02 369.64 431.55   Q 368.34 431.70 360.46 432.67   C 357.08 433.08 354.17 434.21 351.62 434.33   C 346.97 434.55 346.16 438.40 344.99 442.38   A 2.44 2.32 51.7 0 0 344.90 443.37   Q 344.99 444.23 345.24 452.12   Q 345.37 456.01 345.87 460.86   Q 347.33 475.14 348.83 489.15"/>
<path stroke="#fcece5" vector-effect="non-scaling-stroke" d="   M 478.41 495.68   Q 478.19 495.58 478.11 495.45   A 0.41 0.41 0.0 0 0 477.34 495.68   L 477.58 499.10   A 1.48 1.41 30.5 0 0 477.75 499.69   C 479.99 503.94 476.89 514.83 475.65 518.86   C 473.61 525.46 466.72 527.64 460.50 527.75   Q 418.54 528.50 376.75 527.82   C 368.51 527.69 360.17 528.13 354.62 521.68   A 2.55 2.46 17.5 0 1 354.12 520.76   C 352.80 516.35 351.05 511.03 350.35 506.31   Q 349.84 502.89 348.49 495.05   A 2.81 2.80 55.3 0 1 348.82 493.21   Q 350.50 490.28 348.83 489.15"/>
<path stroke="#fbe4d8" vector-effect="non-scaling-stroke" d="   M 537.40 503.27   Q 538.84 511.18 540.71 518.86   C 543.96 532.17 554.70 533.58 566.25 533.80   Q 609.81 534.64 648.00 533.87   C 657.92 533.67 670.84 533.63 675.12 522.46   Q 676.78 518.14 677.62 513.74   Q 679.28 505.05 680.50 496.11"/>
<path stroke="#fbe4d8" vector-effect="non-scaling-stroke" d="   M 342.51 495.92   Q 343.71 508.26 346.84 520.04   C 350.30 533.03 363.16 533.69 374.08 533.90   Q 413.31 534.62 456.00 533.83   C 466.66 533.63 477.33 532.88 481.46 521.26   Q 483.88 514.43 484.64 506.27   A 1.99 1.93 -25.6 0 1 484.98 505.35   Q 485.85 504.12 485.68 503.48"/>
<path stroke="#fcece5" vector-effect="non-scaling-stroke" d="   M 674.25 486.57   Q 672.48 489.58 674.16 493.97   A 2.10 2.06 -52.8 0 1 674.29 495.01   Q 672.58 508.50 669.10 521.02   A 2.66 2.56 72.0 0 1 668.69 521.86   Q 667.32 523.77 665.20 524.94   Q 659.79 527.93 653.76 527.94   Q 574.47 528.09 567.26 527.85   C 558.88 527.57 549.77 527.29 547.11 518.21   Q 544.91 510.73 544.11 503.46   Q 543.98 502.30 545.10 500.77   A 2.39 2.38 -27.3 0 0 545.54 499.39   L 545.54 476.48   A 0.09 0.08 90.0 0 0 545.46 476.39   L 544.91 476.39   A 0.22 0.22 0.0 0 0 544.69 476.63   Q 544.78 477.54 544.18 478.07"/>
<path stroke="#896a5d" vector-effect="non-scaling-stroke" d="   M 701.95 500.69   Q 710.84 488.65 720.89 478.91   Q 723.67 476.20 725.99 475.88   Q 731.03 475.17 732.35 479.50   Q 733.51 483.27 731.49 485.04   Q 726.38 489.54 723.62 492.62   Q 714.95 502.32 705.66 515.39   Q 703.31 518.70 699.61 517.76   A 0.34 0.34 0.0 0 0 699.19 518.04   L 692.23 556.38   A 0.16 0.16 0.0 0 0 692.38 556.57   C 706.35 556.84 718.11 552.32 728.37 542.62   C 741.39 530.32 750.47 513.11 755.52 496.06   Q 756.24 493.62 756.34 492.00   C 756.56 488.30 757.38 484.97 757.26 481.63   Q 756.83 470.03 752.59 462.16   Q 748.39 454.34 739.81 446.92   C 735.70 443.37 730.43 441.37 724.95 440.62   A 4.69 4.68 33.9 0 0 721.97 441.20   L 714.85 445.32   A 2.88 2.58 -63.5 0 1 714.12 445.61   L 711.08 446.41   A 1.04 1.03 0.4 0 0 710.34 447.13   Q 709.51 450.05 708.88 454.45   Q 705.17 480.63 702.15 498.50   C 702.03 499.15 701.43 500.47 701.43 500.54   A 0.29 0.29 0.0 0 0 701.95 500.69"/>
<path stroke="#896a5d" vector-effect="non-scaling-stroke" d="   M 321.11 501.41   L 312.80 449.15   A 2.24 2.23 -79.7 0 0 311.71 447.57   L 300.36 441.02   A 2.54 2.48 59.3 0 0 299.12 440.69   C 289.20 440.74 282.69 446.40 276.14 453.65   Q 264.89 466.10 265.39 482.95   Q 265.74 494.70 270.55 506.20   Q 277.65 523.14 288.52 536.38   Q 304.72 556.11 330.08 556.75   A 0.64 0.63 -5.0 0 0 330.72 555.99   Q 328.13 543.33 327.88 541.96   Q 325.81 530.92 324.03 517.92   A 0.36 0.35 -8.0 0 0 323.62 517.62   Q 318.64 518.40 315.65 513.84   Q 304.82 497.28 291.67 485.59   C 288.98 483.20 290.08 478.14 292.81 476.46   C 295.75 474.65 298.74 476.10 301.13 478.40   Q 313.26 490.11 321.03 501.44   A 0.04 0.04 0.0 0 0 321.11 501.41"/>
<path stroke="#896a5d" vector-effect="non-scaling-stroke" d="   M 432.47 688.78   Q 432.28 713.30 432.55 765.75   C 432.63 782.95 425.59 801.33 412.46 812.71   Q 404.52 819.59 394.54 823.19   A 0.54 0.54 0.0 0 0 394.36 824.09   C 401.28 830.45 410.15 836.17 418.90 840.21   Q 446.57 853.02 476.06 856.37   Q 513.87 860.67 552.00 855.81   C 560.55 854.72 568.65 852.95 576.34 850.56   Q 585.32 847.77 595.01 843.98   Q 604.72 840.17 610.38 836.62   Q 620.27 830.40 628.20 823.88   A 0.52 0.52 0.0 0 0 628.00 822.98   Q 624.47 822.09 620.23 819.75   Q 599.23 808.15 592.85 784.04   Q 592.30 781.95 591.55 779.76"/>
<path stroke="#7c5a52" vector-effect="non-scaling-stroke" d="   M 591.55 779.76   Q 590.28 771.31 590.32 768.75   Q 590.88 728.29 590.29 685.75   Q 590.28 685.09 590.16 684.88   A 0.77 0.77 0.0 0 0 589.17 684.55   Q 585.77 686.09 583.26 686.98   Q 559.68 695.41 534.95 697.79   Q 513.59 699.85 494.72 698.48   Q 477.91 697.25 460.63 693.12   Q 446.11 689.64 433.02 683.88   A 0.40 0.40 0.0 0 0 432.46 684.24   L 432.47 688.78"/>
<path stroke="#e9b9a6" vector-effect="non-scaling-stroke" d="   M 591.55 779.76   L 590.03 780.05   A 0.37 0.36 -35.0 0 1 589.77 780.01   Q 527.71 746.86 467.79 712.44   Q 446.96 700.48 434.32 691.65   Q 433.44 691.03 433.32 689.15   A 0.44 0.42 13.8 0 0 433.09 688.79   Q 432.73 688.61 432.47 688.78"/>
<path stroke="#896a5d" vector-effect="non-scaling-stroke" d="   M 361.82 394.84   C 359.61 398.62 361.67 402.18 365.48 403.28   Q 367.38 403.83 371.49 402.21   Q 377.52 399.84 385.52 398.53   Q 407.18 394.97 427.75 396.79   Q 440.89 397.95 454.29 401.66   C 457.61 402.58 461.44 399.66 461.57 396.10   C 461.96 385.98 436.99 379.86 429.87 378.67   Q 411.91 375.66 394.27 376.77   Q 383.92 377.42 375.54 383.25   C 370.46 386.79 364.55 390.19 361.82 394.84"/>
<path stroke="#896a5d" vector-effect="non-scaling-stroke" d="   M 660.18 394.83   C 657.45 390.17 651.54 386.77 646.45 383.23   Q 638.07 377.40 627.72 376.75   Q 610.07 375.63 592.11 378.64   C 584.98 379.83 560.00 385.95 560.39 396.08   C 560.52 399.64 564.35 402.56 567.67 401.64   Q 581.08 397.93 594.22 396.77   Q 614.80 394.95 636.47 398.51   Q 644.47 399.83 650.50 402.20   Q 654.62 403.82 656.52 403.27   C 660.33 402.17 662.39 398.61 660.18 394.83"/>
<path stroke="#8b726a" vector-effect="non-scaling-stroke" d="   M 410.59 472.74   C 410.55 482.49 414.04 496.25 426.41 496.30   C 438.77 496.35 442.37 482.62 442.41 472.87   C 442.45 463.12 438.96 449.36 426.59 449.31   C 414.23 449.26 410.63 462.99 410.59 472.74"/>
<path stroke="#8b726a" vector-effect="non-scaling-stroke" d="   M 611.25 472.65   C 611.19 462.91 607.57 449.19 595.22 449.27   C 582.86 449.34 579.40 463.09 579.46 472.84   C 579.51 482.58 583.14 496.29 595.49 496.22   C 607.85 496.15 611.31 482.39 611.25 472.65"/>
<path stroke="#896a5d" vector-effect="non-scaling-stroke" d="   M 509.15 530.16   C 511.31 530.40 514.05 528.48 513.65 526.02   A 1.96 1.95 20.1 0 0 513.21 525.08   L 509.58 520.81   A 0.78 0.69 14.9 0 1 509.48 520.66   C 504.93 512.70 509.24 501.99 516.69 497.75   A 1.48 1.47 -6.6 0 0 517.36 496.91   Q 518.61 492.90 515.67 491.11   C 508.29 486.59 501.96 501.29 500.31 506.59   C 497.53 515.50 499.46 525.61 508.24 529.90   A 2.75 2.68 -28.4 0 0 509.15 530.16"/>
<path stroke="#896a5d" vector-effect="non-scaling-stroke" d="   M 510.90 602.34   C 528.93 602.35 545.59 598.10 558.81 585.06   A 4.30 4.29 46.9 0 0 559.01 579.15   L 558.80 578.92   A 4.13 4.13 0.0 0 0 552.81 578.72   C 541.75 589.65 526.34 593.54 510.90 593.54   C 495.46 593.53 480.06 589.63 469.00 578.70   A 4.13 4.13 0.0 0 0 463.01 578.89   L 462.80 579.12   A 4.30 4.29 -46.9 0 0 462.99 585.03   C 476.20 598.09 492.86 602.34 510.90 602.34"/>
</g>
<path xmlns="http://www.w3.org/2000/svg" fill="#ffffff" d="   M 1024.00 0.00   L 1024.00 1024.00   L 936.53 1024.00   Q 926.53 997.75 919.79 983.21   Q 911.20 964.72 902.21 944.73   C 893.74 925.88 883.00 909.31 867.73 895.53   Q 866.03 893.99 864.18 893.21   A 2.08 2.05 -6.8 0 1 863.38 892.59   Q 861.46 890.19 857.17 887.60   Q 849.98 883.26 842.37 880.15   Q 830.20 875.18 828.30 874.48   Q 802.89 865.07 787.09 859.77   C 785.48 859.23 783.57 858.21 782.05 857.69   Q 752.79 847.68 738.06 842.17   Q 737.73 842.04 693.88 826.85   Q 683.63 823.30 651.35 810.72   Q 645.61 808.48 643.16 808.59   Q 638.95 808.79 636.21 812.87   A 1.17 1.16 29.2 0 1 634.76 813.28   Q 629.55 810.94 626.72 809.55   C 611.16 801.88 602.27 784.80 602.33 768.00   Q 602.47 729.58 602.33 679.35   A 0.89 0.89 0.0 0 1 602.81 678.56   Q 615.27 672.39 627.09 664.26   Q 629.07 662.91 631.29 661.06   C 634.81 658.14 638.80 655.17 641.52 652.68   Q 668.44 628.06 681.61 593.61   Q 685.95 582.28 689.28 569.89   A 1.02 1.01 7.4 0 1 690.26 569.14   L 696.73 569.16   A 3.14 2.81 -48.1 0 0 697.37 569.09   Q 697.98 568.84 702.90 568.32   Q 709.00 567.67 715.12 565.11   Q 717.52 564.10 719.64 563.38   Q 722.06 562.55 724.05 561.22   C 733.20 555.11 741.28 547.56 747.96 538.50   Q 752.04 532.97 754.88 528.18   Q 761.84 516.43 766.00 501.85   Q 769.21 490.58 768.94 479.47   C 768.48 461.01 759.08 445.84 743.92 434.83   Q 742.26 433.63 740.45 433.09   A 1.62 1.62 0.0 0 1 739.37 431.06   Q 746.15 409.19 749.33 386.44   Q 752.37 364.70 753.69 346.91   A 0.80 0.79 3.4 0 1 754.52 346.18   Q 759.32 346.41 761.09 342.16   A 2.01 1.98 54.5 0 0 761.24 341.22   Q 760.88 337.21 760.00 319.38   Q 759.41 307.32 757.89 297.72   Q 753.17 267.95 741.82 240.90   Q 733.57 221.26 725.42 208.04   C 714.71 190.68 702.23 174.71 687.41 162.09   Q 671.59 148.64 654.36 138.91   C 643.37 132.72 632.98 126.81 620.40 120.95   Q 612.22 117.14 593.74 111.36   Q 575.72 105.73 560.60 102.01   Q 542.75 97.62 530.67 96.39   Q 488.56 92.12 445.71 98.99   Q 435.06 100.69 425.15 103.45   C 419.34 105.07 415.12 107.09 408.86 109.59   C 398.34 113.79 389.47 120.20 378.14 128.15   Q 372.91 131.82 364.94 139.42   Q 357.90 146.14 353.88 154.51   A 0.37 0.37 0.0 0 1 353.17 154.37   Q 352.51 141.43 355.56 128.28   C 356.57 123.89 357.78 117.24 351.11 116.71   C 348.78 116.53 347.24 116.21 345.73 117.23   C 341.43 120.12 339.31 125.90 338.00 130.74   C 334.33 144.35 333.08 158.70 335.90 172.35   A 0.44 0.44 0.0 0 1 335.42 172.88   Q 321.22 171.37 306.76 174.04   Q 295.46 176.13 285.56 182.82   Q 281.27 185.73 281.52 189.98   Q 281.71 193.26 283.90 194.65   C 288.05 197.31 291.03 194.62 295.67 194.39   Q 302.20 194.07 308.74 193.28   Q 309.66 193.17 311.68 193.35   A 0.44 0.43 24.1 0 1 311.96 194.08   Q 295.63 211.67 286.26 233.68   Q 273.10 264.57 264.89 299.32   Q 261.30 314.48 258.88 328.08   A 2.62 2.61 28.4 0 0 259.55 330.31   L 262.40 333.35   A 1.90 1.90 0.0 0 1 262.91 334.51   C 263.97 342.52 266.47 358.48 268.54 373.40   Q 272.22 399.87 277.75 422.75   Q 279.12 428.44 280.75 432.90   A 0.64 0.62 -27.1 0 1 280.50 433.65   C 265.93 443.09 254.86 459.55 253.85 477.03   Q 253.20 488.37 255.90 498.89   Q 262.65 525.21 280.75 545.75   C 286.60 552.38 295.03 559.82 303.63 563.49   Q 310.03 566.23 314.48 567.25   Q 321.96 568.96 324.77 568.68   Q 325.72 568.59 327.22 568.87   C 329.22 569.24 330.57 569.20 332.31 568.92   A 1.20 1.20 0.0 0 1 333.67 569.82   Q 336.94 583.29 342.17 596.35   C 355.76 630.31 381.63 658.62 414.13 675.35   Q 417.02 676.84 419.94 678.59   A 0.94 0.94 0.0 0 1 420.40 679.36   Q 420.58 684.53 420.56 689.50   Q 420.43 720.74 420.61 749.75   Q 420.70 764.14 420.58 768.38   Q 420.36 775.87 418.58 781.29   C 415.05 792.01 408.63 801.93 399.03 807.79   Q 393.47 811.19 387.24 813.53   A 0.54 0.54 0.0 0 1 386.57 813.29   C 383.68 808.21 377.56 807.69 372.70 810.10   Q 370.71 811.09 369.52 811.56   Q 344.10 821.47 332.89 825.39   Q 290.64 840.20 256.33 852.12   C 247.32 855.25 234.71 859.98 218.76 865.53   Q 199.63 872.18 180.84 879.83   Q 172.60 883.18 164.02 888.27   Q 161.50 889.76 160.13 891.49   A 4.44 4.32 -84.7 0 1 158.84 892.59   C 154.35 895.14 151.60 898.31 146.73 903.33   Q 141.87 908.34 139.20 912.06   Q 128.19 927.44 122.48 940.01   Q 104.89 978.72 102.53 983.75   Q 100.89 987.23 99.83 989.99   C 97.75 995.40 95.21 1000.75 93.25 1005.62   Q 89.58 1014.76 85.90 1024.00   L 0.00 1024.00   L 0.00 0.00   L 1024.00 0.00   Z"/>
<path xmlns="http://www.w3.org/2000/svg" fill="#1c0b09" d="   M 936.53 1024.00   L 923.89 1024.00   Q 916.70 1005.59 901.25 971.23   Q 892.90 952.68 892.39 951.66   Q 889.93 946.83 887.96 942.62   C 883.70 933.47 878.39 925.70 872.25 917.76   Q 861.80 904.24 847.50 895.84   Q 842.09 892.67 830.03 887.98   Q 817.59 883.13 812.12 881.15   Q 780.43 869.68 690.67 838.28   Q 667.57 830.20 651.07 823.19   Q 648.81 822.23 646.90 821.13   A 1.11 1.11 0.0 0 0 645.42 821.48   Q 640.45 829.02 633.09 835.10   Q 619.66 846.20 604.36 852.86   C 587.70 860.10 570.72 865.42 552.38 867.63   Q 537.40 869.43 525.26 869.75   Q 516.96 869.96 494.80 869.48   Q 487.25 869.31 478.22 868.47   Q 468.00 867.52 461.76 866.23   Q 451.00 864.01 445.61 862.58   Q 438.31 860.65 423.31 854.92   Q 413.01 850.98 400.48 843.53   Q 393.05 839.10 386.56 833.29   C 383.06 830.15 380.13 826.05 376.92 821.69   A 1.13 1.13 0.0 0 0 375.46 821.37   Q 372.16 823.22 368.68 824.65   Q 364.04 826.56 349.28 832.15   Q 339.70 835.77 329.74 839.21   Q 270.94 859.54 210.02 881.24   Q 207.72 882.06 200.50 884.87   C 192.87 887.84 184.36 890.95 177.07 894.72   Q 170.14 898.32 164.33 903.01   Q 157.27 908.73 149.26 919.25   Q 140.59 930.65 137.39 937.14   Q 132.34 947.37 127.10 958.07   Q 126.49 959.32 125.96 961.25   A 4.68 4.60 66.3 0 1 125.71 961.91   C 119.94 974.21 115.11 984.24 109.65 997.25   Q 104.05 1010.61 98.46 1024.00   L 85.90 1024.00   Q 89.58 1014.76 93.25 1005.62   C 95.21 1000.75 97.75 995.40 99.83 989.99   Q 100.89 987.23 102.53 983.75   Q 104.89 978.72 122.48 940.01   Q 128.19 927.44 139.20 912.06   Q 141.87 908.34 146.73 903.33   C 151.60 898.31 154.35 895.14 158.84 892.59   A 4.44 4.32 -84.7 0 0 160.13 891.49   Q 161.50 889.76 164.02 888.27   Q 172.60 883.18 180.84 879.83   Q 199.63 872.18 218.76 865.53   C 234.71 859.98 247.32 855.25 256.33 852.12   Q 290.64 840.20 332.89 825.39   Q 344.10 821.47 369.52 811.56   Q 370.71 811.09 372.70 810.10   C 377.56 807.69 383.68 808.21 386.57 813.29   A 0.54 0.54 0.0 0 0 387.24 813.53   Q 393.47 811.19 399.03 807.79   C 408.63 801.93 415.05 792.01 418.58 781.29   Q 420.36 775.87 420.58 768.38   Q 420.70 764.14 420.61 749.75   Q 420.43 720.74 420.56 689.50   Q 420.58 684.53 420.40 679.36   A 0.94 0.94 0.0 0 0 419.94 678.59   Q 417.02 676.84 414.13 675.35   C 381.63 658.62 355.76 630.31 342.17 596.35   Q 336.94 583.29 333.67 569.82   A 1.20 1.20 0.0 0 0 332.31 568.92   C 330.57 569.20 329.22 569.24 327.22 568.87   Q 325.72 568.59 324.77 568.68   Q 321.96 568.96 314.48 567.25   Q 310.03 566.23 303.63 563.49   C 295.03 559.82 286.60 552.38 280.75 545.75   Q 262.65 525.21 255.90 498.89   Q 253.20 488.37 253.85 477.03   C 254.86 459.55 265.93 443.09 280.50 433.65   A 0.64 0.62 -27.1 0 0 280.75 432.90   Q 279.12 428.44 277.75 422.75   Q 272.22 399.87 268.54 373.40   C 266.47 358.48 263.97 342.52 262.91 334.51   A 1.90 1.90 0.0 0 0 262.40 333.35   L 259.55 330.31   A 2.62 2.61 28.4 0 1 258.88 328.08   Q 261.30 314.48 264.89 299.32   Q 273.10 264.57 286.26 233.68   Q 295.63 211.67 311.96 194.08   A 0.44 0.43 24.1 0 0 311.68 193.35   Q 309.66 193.17 308.74 193.28   Q 302.20 194.07 295.67 194.39   C 291.03 194.62 288.05 197.31 283.90 194.65   Q 281.71 193.26 281.52 189.98   Q 281.27 185.73 285.56 182.82   Q 295.46 176.13 306.76 174.04   Q 321.22 171.37 335.42 172.88   A 0.44 0.44 0.0 0 0 335.90 172.35   C 333.08 158.70 334.33 144.35 338.00 130.74   C 339.31 125.90 341.43 120.12 345.73 117.23   C 347.24 116.21 348.78 116.53 351.11 116.71   C 357.78 117.24 356.57 123.89 355.56 128.28   Q 352.51 141.43 353.17 154.37   A 0.37 0.37 0.0 0 0 353.88 154.51   Q 357.90 146.14 364.94 139.42   Q 372.91 131.82 378.14 128.15   C 389.47 120.20 398.34 113.79 408.86 109.59   C 415.12 107.09 419.34 105.07 425.15 103.45   Q 435.06 100.69 445.71 98.99   Q 488.56 92.12 530.67 96.39   Q 542.75 97.62 560.60 102.01   Q 575.72 105.73 593.74 111.36   Q 612.22 117.14 620.40 120.95   C 632.98 126.81 643.37 132.72 654.36 138.91   Q 671.59 148.64 687.41 162.09   C 702.23 174.71 714.71 190.68 725.42 208.04   Q 733.57 221.26 741.82 240.90   Q 753.17 267.95 757.89 297.72   Q 759.41 307.32 760.00 319.38   Q 760.88 337.21 761.24 341.22   A 2.01 1.98 54.5 0 1 761.09 342.16   Q 759.32 346.41 754.52 346.18   A 0.80 0.79 3.4 0 0 753.69 346.91   Q 752.37 364.70 749.33 386.44   Q 746.15 409.19 739.37 431.06   A 1.62 1.62 0.0 0 0 740.45 433.09   Q 742.26 433.63 743.92 434.83   C 759.08 445.84 768.48 461.01 768.94 479.47   Q 769.21 490.58 766.00 501.85   Q 761.84 516.43 754.88 528.18   Q 752.04 532.97 747.96 538.50   C 741.28 547.56 733.20 555.11 724.05 561.22   Q 722.06 562.55 719.64 563.38   Q 717.52 564.10 715.12 565.11   Q 709.00 567.67 702.90 568.32   Q 697.98 568.84 697.37 569.09   A 3.14 2.81 -48.1 0 1 696.73 569.16   L 690.26 569.14   A 1.02 1.01 7.4 0 0 689.28 569.89   Q 685.95 582.28 681.61 593.61   Q 668.44 628.06 641.52 652.68   C 638.80 655.17 634.81 658.14 631.29 661.06   Q 629.07 662.91 627.09 664.26   Q 615.27 672.39 602.81 678.56   A 0.89 0.89 0.0 0 0 602.33 679.35   Q 602.47 729.58 602.33 768.00   C 602.27 784.80 611.16 801.88 626.72 809.55   Q 629.55 810.94 634.76 813.28   A 1.17 1.16 29.2 0 0 636.21 812.87   Q 638.95 808.79 643.16 808.59   Q 645.61 808.48 651.35 810.72   Q 683.63 823.30 693.88 826.85   Q 737.73 842.04 738.06 842.17   Q 752.79 847.68 782.05 857.69   C 783.57 858.21 785.48 859.23 787.09 859.77   Q 802.89 865.07 828.30 874.48   Q 830.20 875.18 842.37 880.15   Q 849.98 883.26 857.17 887.60   Q 861.46 890.19 863.38 892.59   A 2.08 2.05 -6.8 0 0 864.18 893.21   Q 866.03 893.99 867.73 895.53   C 883.00 909.31 893.74 925.88 902.21 944.73   Q 911.20 964.72 919.79 983.21   Q 926.53 997.75 936.53 1024.00   Z   M 344.65 353.88   C 343.90 359.60 343.62 365.32 342.51 372.00   Q 338.06 398.66 330.79 426.51   A 0.45 0.45 0.0 0 0 331.39 427.04   C 335.30 425.40 339.32 425.03 343.85 423.92   Q 358.32 420.39 374.00 419.71   Q 376.03 419.63 376.93 419.32   A 1.68 1.66 38.3 0 1 377.65 419.24   Q 378.58 419.35 391.25 418.62   Q 410.74 417.50 444.94 418.78   Q 446.05 418.82 453.75 419.32   Q 466.40 420.14 480.36 422.69   A 2.98 2.95 66.7 0 1 481.47 423.14   Q 489.99 428.93 491.13 438.79   A 0.68 0.68 0.0 0 0 492.14 439.30   C 494.09 438.20 495.71 438.18 497.73 437.79   C 504.81 436.43 512.97 435.77 520.12 436.99   C 523.92 437.63 527.69 437.83 531.28 439.18   A 0.40 0.40 0.0 0 0 531.81 438.83   Q 532.16 432.05 537.40 426.30   Q 540.15 423.29 542.38 422.48   A 2.19 2.13 36.3 0 1 543.25 422.36   Q 544.59 422.46 549.51 421.56   Q 559.52 419.75 576.74 418.87   Q 607.82 417.28 638.51 418.82   Q 641.15 418.95 642.35 419.15   C 645.17 419.62 648.09 419.21 651.15 419.84   Q 652.05 420.02 654.88 420.14   Q 667.44 420.67 680.45 424.04   Q 685.41 425.32 690.61 426.76   A 0.34 0.33 -0.4 0 0 691.02 426.35   Q 683.09 398.26 676.84 367.89   C 676.33 365.39 675.09 361.36 674.43 358.30   A 1.84 1.81 -77.2 0 0 673.79 357.27   C 672.42 356.16 670.23 355.60 668.73 354.62   C 660.82 349.48 652.82 344.66 645.37 338.38   Q 636.38 330.80 630.65 326.21   A 0.60 0.59 15.1 0 0 629.69 326.76   Q 629.83 327.73 630.65 329.83   Q 631.35 331.62 635.39 340.88   Q 635.67 341.50 636.07 344.28   A 2.29 2.26 51.4 0 1 635.96 345.33   Q 633.35 352.71 625.21 350.36   Q 619.08 348.60 612.64 345.58   Q 598.25 338.83 583.83 329.42   C 577.65 325.38 570.29 321.20 565.76 318.76   A 0.55 0.55 0.0 0 0 564.98 319.44   C 567.22 325.26 570.09 330.49 570.45 336.44   A 2.10 2.04 58.6 0 1 570.20 337.54   Q 566.69 344.04 560.12 342.55   Q 552.72 340.88 543.25 336.00   C 532.38 330.41 524.12 325.83 515.18 319.58   Q 493.61 304.48 485.78 298.97   Q 474.83 291.25 462.45 286.12   A 1.12 1.12 0.0 0 0 460.90 287.19   Q 460.94 288.39 461.69 290.28   Q 468.80 308.25 478.23 322.46   C 479.61 324.55 480.69 326.75 482.24 329.64   A 3.42 3.30 25.6 0 1 482.56 330.50   Q 483.73 335.88 479.49 337.58   C 474.45 339.60 468.49 334.55 464.96 331.62   Q 455.38 323.69 446.19 314.14   Q 428.64 295.92 409.39 281.19   C 403.80 276.91 395.81 271.62 388.66 272.71   Q 385.43 273.21 381.40 276.33   C 374.89 281.38 370.69 288.15 368.25 295.97   Q 364.17 309.07 362.51 321.99   Q 359.99 341.52 360.49 360.30   Q 360.57 363.58 359.53 365.00   C 356.52 369.08 351.01 368.79 348.43 364.32   C 346.47 360.92 346.04 357.06 345.17 353.85   A 0.27 0.26 41.4 0 0 344.65 353.88   Z   M 348.83 489.15   Q 348.14 495.36 342.51 495.92   C 336.26 493.77 337.70 488.79 336.94 483.61   Q 334.82 469.12 333.92 454.34   A 1.38 1.37 -14.1 0 0 331.97 453.18   Q 329.86 454.14 327.81 453.97   A 1.70 1.69 -3.9 0 0 326.02 456.02   C 326.42 457.85 326.42 459.99 326.79 462.30   Q 329.42 478.90 339.48 539.75   Q 342.20 556.23 346.71 572.50   C 351.26 588.90 358.05 605.31 367.59 619.09   Q 385.62 645.12 413.24 661.26   C 439.78 676.77 469.07 685.45 499.71 686.87   C 531.50 688.34 561.89 683.85 591.00 670.87   Q 621.94 657.06 642.06 635.58   Q 663.27 612.92 673.26 582.02   Q 679.77 561.90 683.48 539.50   Q 689.62 502.35 696.25 461.49   Q 696.56 459.61 696.88 454.69   A 0.54 0.54 0.0 0 0 696.32 454.11   Q 692.94 454.19 689.72 452.85   A 0.43 0.42 13.4 0 0 689.13 453.21   Q 688.05 469.16 685.88 484.28   C 685.53 486.71 685.94 489.72 684.98 491.83   Q 683.74 494.55 680.50 496.11   Q 673.48 495.09 674.25 486.57   Q 676.82 465.47 677.57 456.75   Q 677.77 454.51 678.05 443.46   A 3.39 3.21 39.4 0 0 677.93 442.51   C 677.12 439.52 676.17 435.00 672.98 434.35   Q 658.33 431.38 642.50 430.75   Q 619.57 429.84 608.00 429.80   Q 602.93 429.78 585.75 430.23   Q 567.77 430.69 560.31 431.91   Q 557.46 432.38 556.30 432.43   C 553.30 432.55 550.42 433.90 547.72 433.45   A 1.82 1.79 -61.5 0 0 546.18 433.92   C 543.49 436.48 543.34 438.05 543.04 441.84   Q 542.86 444.05 542.96 446.30   Q 543.59 460.24 543.98 474.00   Q 544.04 476.01 544.18 478.07   Q 544.32 492.02 544.57 497.01   Q 544.92 503.89 537.40 503.27   Q 532.92 501.17 532.81 496.51   Q 532.45 480.39 532.09 463.51   Q 531.93 456.17 531.53 452.16   A 0.95 0.94 -82.3 0 0 530.94 451.38   Q 511.28 443.78 491.65 451.51   A 0.71 0.71 0.0 0 0 491.20 452.14   Q 490.39 474.78 490.10 495.62   Q 490.04 500.69 485.68 503.48   Q 478.16 504.15 478.41 495.68   Q 478.43 494.12 478.47 492.47   Q 478.98 471.84 479.87 445.83   C 479.94 443.86 479.76 442.01 479.65 439.56   Q 479.51 436.67 476.87 434.20   A 2.03 1.99 -19.0 0 0 475.78 433.68   Q 454.08 430.53 445.00 430.46   C 439.65 430.42 431.07 429.87 425.66 429.85   Q 403.22 429.73 378.86 430.81   Q 374.21 431.02 369.64 431.55   Q 368.34 431.70 360.46 432.67   C 357.08 433.08 354.17 434.21 351.62 434.33   C 346.97 434.55 346.16 438.40 344.99 442.38   A 2.44 2.32 51.7 0 0 344.90 443.37   Q 344.99 444.23 345.24 452.12   Q 345.37 456.01 345.87 460.86   Q 347.33 475.14 348.83 489.15   Z   M 701.95 500.69   Q 710.84 488.65 720.89 478.91   Q 723.67 476.20 725.99 475.88   Q 731.03 475.17 732.35 479.50   Q 733.51 483.27 731.49 485.04   Q 726.38 489.54 723.62 492.62   Q 714.95 502.32 705.66 515.39   Q 703.31 518.70 699.61 517.76   A 0.34 0.34 0.0 0 0 699.19 518.04   L 692.23 556.38   A 0.16 0.16 0.0 0 0 692.38 556.57   C 706.35 556.84 718.11 552.32 728.37 542.62   C 741.39 530.32 750.47 513.11 755.52 496.06   Q 756.24 493.62 756.34 492.00   C 756.56 488.30 757.38 484.97 757.26 481.63   Q 756.83 470.03 752.59 462.16   Q 748.39 454.34 739.81 446.92   C 735.70 443.37 730.43 441.37 724.95 440.62   A 4.69 4.68 33.9 0 0 721.97 441.20   L 714.85 445.32   A 2.88 2.58 -63.5 0 1 714.12 445.61   L 711.08 446.41   A 1.04 1.03 0.4 0 0 710.34 447.13   Q 709.51 450.05 708.88 454.45   Q 705.17 480.63 702.15 498.50   C 702.03 499.15 701.43 500.47 701.43 500.54   A 0.29 0.29 0.0 0 0 701.95 500.69   Z   M 321.11 501.41   L 312.80 449.15   A 2.24 2.23 -79.7 0 0 311.71 447.57   L 300.36 441.02   A 2.54 2.48 59.3 0 0 299.12 440.69   C 289.20 440.74 282.69 446.40 276.14 453.65   Q 264.89 466.10 265.39 482.95   Q 265.74 494.70 270.55 506.20   Q 277.65 523.14 288.52 536.38   Q 304.72 556.11 330.08 556.75   A 0.64 0.63 -5.0 0 0 330.72 555.99   Q 328.13 543.33 327.88 541.96   Q 325.81 530.92 324.03 517.92   A 0.36 0.35 -8.0 0 0 323.62 517.62   Q 318.64 518.40 315.65 513.84   Q 304.82 497.28 291.67 485.59   C 288.98 483.20 290.08 478.14 292.81 476.46   C 295.75 474.65 298.74 476.10 301.13 478.40   Q 313.26 490.11 321.03 501.44   A 0.04 0.04 0.0 0 0 321.11 501.41   Z   M 432.47 688.78   Q 432.28 713.30 432.55 765.75   C 432.63 782.95 425.59 801.33 412.46 812.71   Q 404.52 819.59 394.54 823.19   A 0.54 0.54 0.0 0 0 394.36 824.09   C 401.28 830.45 410.15 836.17 418.90 840.21   Q 446.57 853.02 476.06 856.37   Q 513.87 860.67 552.00 855.81   C 560.55 854.72 568.65 852.95 576.34 850.56   Q 585.32 847.77 595.01 843.98   Q 604.72 840.17 610.38 836.62   Q 620.27 830.40 628.20 823.88   A 0.52 0.52 0.0 0 0 628.00 822.98   Q 624.47 822.09 620.23 819.75   Q 599.23 808.15 592.85 784.04   Q 592.30 781.95 591.55 779.76   Q 590.28 771.31 590.32 768.75   Q 590.88 728.29 590.29 685.75   Q 590.28 685.09 590.16 684.88   A 0.77 0.77 0.0 0 0 589.17 684.55   Q 585.77 686.09 583.26 686.98   Q 559.68 695.41 534.95 697.79   Q 513.59 699.85 494.72 698.48   Q 477.91 697.25 460.63 693.12   Q 446.11 689.64 433.02 683.88   A 0.40 0.40 0.0 0 0 432.46 684.24   L 432.47 688.78   Z"/>
<path xmlns="http://www.w3.org/2000/svg" fill="#f6c9b1" d="   M 345.17 353.85   C 346.04 357.06 346.47 360.92 348.43 364.32   C 351.01 368.79 356.52 369.08 359.53 365.00   Q 360.57 363.58 360.49 360.30   Q 359.99 341.52 362.51 321.99   Q 364.17 309.07 368.25 295.97   C 370.69 288.15 374.89 281.38 381.40 276.33   Q 385.43 273.21 388.66 272.71   C 395.81 271.62 403.80 276.91 409.39 281.19   Q 428.64 295.92 446.19 314.14   Q 455.38 323.69 464.96 331.62   C 468.49 334.55 474.45 339.60 479.49 337.58   Q 483.73 335.88 482.56 330.50   A 3.42 3.30 25.6 0 0 482.24 329.64   C 480.69 326.75 479.61 324.55 478.23 322.46   Q 468.80 308.25 461.69 290.28   Q 460.94 288.39 460.90 287.19   A 1.12 1.12 0.0 0 1 462.45 286.12   Q 474.83 291.25 485.78 298.97   Q 493.61 304.48 515.18 319.58   C 524.12 325.83 532.38 330.41 543.25 336.00   Q 552.72 340.88 560.12 342.55   Q 566.69 344.04 570.20 337.54   A 2.10 2.04 58.6 0 0 570.45 336.44   C 570.09 330.49 567.22 325.26 564.98 319.44   A 0.55 0.55 0.0 0 1 565.76 318.76   C 570.29 321.20 577.65 325.38 583.83 329.42   Q 598.25 338.83 612.64 345.58   Q 619.08 348.60 625.21 350.36   Q 633.35 352.71 635.96 345.33   A 2.29 2.26 51.4 0 0 636.07 344.28   Q 635.67 341.50 635.39 340.88   Q 631.35 331.62 630.65 329.83   Q 629.83 327.73 629.69 326.76   A 0.60 0.59 15.1 0 1 630.65 326.21   Q 636.38 330.80 645.37 338.38   C 652.82 344.66 660.82 349.48 668.73 354.62   C 670.23 355.60 672.42 356.16 673.79 357.27   A 1.84 1.81 -77.2 0 1 674.43 358.30   C 675.09 361.36 676.33 365.39 676.84 367.89   Q 683.09 398.26 691.02 426.35   A 0.34 0.33 -0.4 0 1 690.61 426.76   Q 685.41 425.32 680.45 424.04   Q 667.44 420.67 654.88 420.14   Q 652.05 420.02 651.15 419.84   C 648.09 419.21 645.17 419.62 642.35 419.15   Q 641.15 418.95 638.51 418.82   Q 607.82 417.28 576.74 418.87   Q 559.52 419.75 549.51 421.56   Q 544.59 422.46 543.25 422.36   A 2.19 2.13 36.3 0 0 542.38 422.48   Q 540.15 423.29 537.40 426.30   Q 532.16 432.05 531.81 438.83   A 0.40 0.40 0.0 0 1 531.28 439.18   C 527.69 437.83 523.92 437.63 520.12 436.99   C 512.97 435.77 504.81 436.43 497.73 437.79   C 495.71 438.18 494.09 438.20 492.14 439.30   A 0.68 0.68 0.0 0 1 491.13 438.79   Q 489.99 428.93 481.47 423.14   A 2.98 2.95 66.7 0 0 480.36 422.69   Q 466.40 420.14 453.75 419.32   Q 446.05 418.82 444.94 418.78   Q 410.74 417.50 391.25 418.62   Q 378.58 419.35 377.65 419.24   A 1.68 1.66 38.3 0 0 376.93 419.32   Q 376.03 419.63 374.00 419.71   Q 358.32 420.39 343.85 423.92   C 339.32 425.03 335.30 425.40 331.39 427.04   A 0.45 0.45 0.0 0 1 330.79 426.51   Q 338.06 398.66 342.51 372.00   C 343.62 365.32 343.90 359.60 344.65 353.88   A 0.27 0.26 41.4 0 1 345.17 353.85   Z   M 361.82 394.84   C 359.61 398.62 361.67 402.18 365.48 403.28   Q 367.38 403.83 371.49 402.21   Q 377.52 399.84 385.52 398.53   Q 407.18 394.97 427.75 396.79   Q 440.89 397.95 454.29 401.66   C 457.61 402.58 461.44 399.66 461.57 396.10   C 461.96 385.98 436.99 379.86 429.87 378.67   Q 411.91 375.66 394.27 376.77   Q 383.92 377.42 375.54 383.25   C 370.46 386.79 364.55 390.19 361.82 394.84   Z   M 660.18 394.83   C 657.45 390.17 651.54 386.77 646.45 383.23   Q 638.07 377.40 627.72 376.75   Q 610.07 375.63 592.11 378.64   C 584.98 379.83 560.00 385.95 560.39 396.08   C 560.52 399.64 564.35 402.56 567.67 401.64   Q 581.08 397.93 594.22 396.77   Q 614.80 394.95 636.47 398.51   Q 644.47 399.83 650.50 402.20   Q 654.62 403.82 656.52 403.27   C 660.33 402.17 662.39 398.61 660.18 394.83   Z"/>
<path xmlns="http://www.w3.org/2000/svg" fill="#1c0b09" d="   M 365.48 403.28   C 361.67 402.18 359.61 398.62 361.82 394.84   C 364.55 390.19 370.46 386.79 375.54 383.25   Q 383.92 377.42 394.27 376.77   Q 411.91 375.66 429.87 378.67   C 436.99 379.86 461.96 385.98 461.57 396.10   C 461.44 399.66 457.61 402.58 454.29 401.66   Q 440.89 397.95 427.75 396.79   Q 407.18 394.97 385.52 398.53   Q 377.52 399.84 371.49 402.21   Q 367.38 403.83 365.48 403.28   Z"/>
<path xmlns="http://www.w3.org/2000/svg" fill="#1c0b09" d="   M 660.18 394.83   C 662.39 398.61 660.33 402.17 656.52 403.27   Q 654.62 403.82 650.50 402.20   Q 644.47 399.83 636.47 398.51   Q 614.80 394.95 594.22 396.77   Q 581.08 397.93 567.67 401.64   C 564.35 402.56 560.52 399.64 560.39 396.08   C 560.00 385.95 584.98 379.83 592.11 378.64   Q 610.07 375.63 627.72 376.75   Q 638.07 377.40 646.45 383.23   C 651.54 386.77 657.45 390.17 660.18 394.83   Z"/>
<path xmlns="http://www.w3.org/2000/svg" fill="#f9d8ca" d="   M 478.41 495.68   Q 478.19 495.58 478.11 495.45   A 0.41 0.41 0.0 0 0 477.34 495.68   L 477.58 499.10   A 1.48 1.41 30.5 0 0 477.75 499.69   C 479.99 503.94 476.89 514.83 475.65 518.86   C 473.61 525.46 466.72 527.64 460.50 527.75   Q 418.54 528.50 376.75 527.82   C 368.51 527.69 360.17 528.13 354.62 521.68   A 2.55 2.46 17.5 0 1 354.12 520.76   C 352.80 516.35 351.05 511.03 350.35 506.31   Q 349.84 502.89 348.49 495.05   A 2.81 2.80 55.3 0 1 348.82 493.21   Q 350.50 490.28 348.83 489.15   Q 347.33 475.14 345.87 460.86   Q 345.37 456.01 345.24 452.12   Q 344.99 444.23 344.90 443.37   A 2.44 2.32 51.7 0 1 344.99 442.38   C 346.16 438.40 346.97 434.55 351.62 434.33   C 354.17 434.21 357.08 433.08 360.46 432.67   Q 368.34 431.70 369.64 431.55   Q 374.21 431.02 378.86 430.81   Q 403.22 429.73 425.66 429.85   C 431.07 429.87 439.65 430.42 445.00 430.46   Q 454.08 430.53 475.78 433.68   A 2.03 1.99 -19.0 0 1 476.87 434.20   Q 479.51 436.67 479.65 439.56   C 479.76 442.01 479.94 443.86 479.87 445.83   Q 478.98 471.84 478.47 492.47   Q 478.43 494.12 478.41 495.68   Z   M 410.59 472.74   C 410.55 482.49 414.04 496.25 426.41 496.30   C 438.77 496.35 442.37 482.62 442.41 472.87   C 442.45 463.12 438.96 449.36 426.59 449.31   C 414.23 449.26 410.63 462.99 410.59 472.74   Z"/>
<path xmlns="http://www.w3.org/2000/svg" fill="#f9d8ca" d="   M 674.25 486.57   Q 672.48 489.58 674.16 493.97   A 2.10 2.06 -52.8 0 1 674.29 495.01   Q 672.58 508.50 669.10 521.02   A 2.66 2.56 72.0 0 1 668.69 521.86   Q 667.32 523.77 665.20 524.94   Q 659.79 527.93 653.76 527.94   Q 574.47 528.09 567.26 527.85   C 558.88 527.57 549.77 527.29 547.11 518.21   Q 544.91 510.73 544.11 503.46   Q 543.98 502.30 545.10 500.77   A 2.39 2.38 -27.3 0 0 545.54 499.39   L 545.54 476.48   A 0.09 0.08 90.0 0 0 545.46 476.39   L 544.91 476.39   A 0.22 0.22 0.0 0 0 544.69 476.63   Q 544.78 477.54 544.18 478.07   Q 544.04 476.01 543.98 474.00   Q 543.59 460.24 542.96 446.30   Q 542.86 444.05 543.04 441.84   C 543.34 438.05 543.49 436.48 546.18 433.92   A 1.82 1.79 -61.5 0 1 547.72 433.45   C 550.42 433.90 553.30 432.55 556.30 432.43   Q 557.46 432.38 560.31 431.91   Q 567.77 430.69 585.75 430.23   Q 602.93 429.78 608.00 429.80   Q 619.57 429.84 642.50 430.75   Q 658.33 431.38 672.98 434.35   C 676.17 435.00 677.12 439.52 677.93 442.51   A 3.39 3.21 39.4 0 1 678.05 443.46   Q 677.77 454.51 677.57 456.75   Q 676.82 465.47 674.25 486.57   Z   M 611.25 472.65   C 611.19 462.91 607.57 449.19 595.22 449.27   C 582.86 449.34 579.40 463.09 579.46 472.84   C 579.51 482.58 583.14 496.29 595.49 496.22   C 607.85 496.15 611.31 482.39 611.25 472.65   Z"/>
<path xmlns="http://www.w3.org/2000/svg" fill="#f6c9b1" d="   M 701.43 500.54   C 701.43 500.47 702.03 499.15 702.15 498.50   Q 705.17 480.63 708.88 454.45   Q 709.51 450.05 710.34 447.13   A 1.04 1.03 0.4 0 1 711.08 446.41   L 714.12 445.61   A 2.88 2.58 -63.5 0 0 714.85 445.32   L 721.97 441.20   A 4.69 4.68 33.9 0 1 724.95 440.62   C 730.43 441.37 735.70 443.37 739.81 446.92   Q 748.39 454.34 752.59 462.16   Q 756.83 470.03 757.26 481.63   C 757.38 484.97 756.56 488.30 756.34 492.00   Q 756.24 493.62 755.52 496.06   C 750.47 513.11 741.39 530.32 728.37 542.62   C 718.11 552.32 706.35 556.84 692.38 556.57   A 0.16 0.16 0.0 0 1 692.23 556.38   L 699.19 518.04   A 0.34 0.34 0.0 0 1 699.61 517.76   Q 703.31 518.70 705.66 515.39   Q 714.95 502.32 723.62 492.62   Q 726.38 489.54 731.49 485.04   Q 733.51 483.27 732.35 479.50   Q 731.03 475.17 725.99 475.88   Q 723.67 476.20 720.89 478.91   Q 710.84 488.65 701.95 500.69   A 0.29 0.29 0.0 0 1 701.43 500.54   Z"/>
<path xmlns="http://www.w3.org/2000/svg" fill="#f6c9b1" d="   M 321.03 501.44   Q 313.26 490.11 301.13 478.40   C 298.74 476.10 295.75 474.65 292.81 476.46   C 290.08 478.14 288.98 483.20 291.67 485.59   Q 304.82 497.28 315.65 513.84   Q 318.64 518.40 323.62 517.62   A 0.36 0.35 -8.0 0 1 324.03 517.92   Q 325.81 530.92 327.88 541.96   Q 328.13 543.33 330.72 555.99   A 0.64 0.63 -5.0 0 1 330.08 556.75   Q 304.72 556.11 288.52 536.38   Q 277.65 523.14 270.55 506.20   Q 265.74 494.70 265.39 482.95   Q 264.89 466.10 276.14 453.65   C 282.69 446.40 289.20 440.74 299.12 440.69   A 2.54 2.48 59.3 0 1 300.36 441.02   L 311.71 447.57   A 2.24 2.23 -79.7 0 1 312.80 449.15   L 321.11 501.41   A 0.04 0.04 0.0 0 1 321.03 501.44   Z"/>
<path xmlns="http://www.w3.org/2000/svg" fill="#f6c9b1" d="   M 537.40 503.27   Q 538.84 511.18 540.71 518.86   C 543.96 532.17 554.70 533.58 566.25 533.80   Q 609.81 534.64 648.00 533.87   C 657.92 533.67 670.84 533.63 675.12 522.46   Q 676.78 518.14 677.62 513.74   Q 679.28 505.05 680.50 496.11   Q 683.74 494.55 684.98 491.83   C 685.94 489.72 685.53 486.71 685.88 484.28   Q 688.05 469.16 689.13 453.21   A 0.43 0.42 13.4 0 1 689.72 452.85   Q 692.94 454.19 696.32 454.11   A 0.54 0.54 0.0 0 1 696.88 454.69   Q 696.56 459.61 696.25 461.49   Q 689.62 502.35 683.48 539.50   Q 679.77 561.90 673.26 582.02   Q 663.27 612.92 642.06 635.58   Q 621.94 657.06 591.00 670.87   C 561.89 683.85 531.50 688.34 499.71 686.87   C 469.07 685.45 439.78 676.77 413.24 661.26   Q 385.62 645.12 367.59 619.09   C 358.05 605.31 351.26 588.90 346.71 572.50   Q 342.20 556.23 339.48 539.75   Q 329.42 478.90 326.79 462.30   C 326.42 459.99 326.42 457.85 326.02 456.02   A 1.70 1.69 -3.9 0 1 327.81 453.97   Q 329.86 454.14 331.97 453.18   A 1.38 1.37 -14.1 0 1 333.92 454.34   Q 334.82 469.12 336.94 483.61   C 337.70 488.79 336.26 493.77 342.51 495.92   Q 343.71 508.26 346.84 520.04   C 350.30 533.03 363.16 533.69 374.08 533.90   Q 413.31 534.62 456.00 533.83   C 466.66 533.63 477.33 532.88 481.46 521.26   Q 483.88 514.43 484.64 506.27   A 1.99 1.93 -25.6 0 1 484.98 505.35   Q 485.85 504.12 485.68 503.48   Q 490.04 500.69 490.10 495.62   Q 490.39 474.78 491.20 452.14   A 0.71 0.71 0.0 0 1 491.65 451.51   Q 511.28 443.78 530.94 451.38   A 0.95 0.94 -82.3 0 1 531.53 452.16   Q 531.93 456.17 532.09 463.51   Q 532.45 480.39 532.81 496.51   Q 532.92 501.17 537.40 503.27   Z   M 509.15 530.16   C 511.31 530.40 514.05 528.48 513.65 526.02   A 1.96 1.95 20.1 0 0 513.21 525.08   L 509.58 520.81   A 0.78 0.69 14.9 0 1 509.48 520.66   C 504.93 512.70 509.24 501.99 516.69 497.75   A 1.48 1.47 -6.6 0 0 517.36 496.91   Q 518.61 492.90 515.67 491.11   C 508.29 486.59 501.96 501.29 500.31 506.59   C 497.53 515.50 499.46 525.61 508.24 529.90   A 2.75 2.68 -28.4 0 0 509.15 530.16   Z   M 510.90 602.34   C 528.93 602.35 545.59 598.10 558.81 585.06   A 4.30 4.29 46.9 0 0 559.01 579.15   L 558.80 578.92   A 4.13 4.13 0.0 0 0 552.81 578.72   C 541.75 589.65 526.34 593.54 510.90 593.54   C 495.46 593.53 480.06 589.63 469.00 578.70   A 4.13 4.13 0.0 0 0 463.01 578.89   L 462.80 579.12   A 4.30 4.29 -46.9 0 0 462.99 585.03   C 476.20 598.09 492.86 602.34 510.90 602.34   Z"/>
<path xmlns="http://www.w3.org/2000/svg" fill="#1c0b09" d="   M 426.59 449.31   C 438.96 449.36 442.45 463.12 442.41 472.87   C 442.37 482.62 438.77 496.35 426.41 496.30   C 414.04 496.25 410.55 482.49 410.59 472.74   C 410.63 462.99 414.23 449.26 426.59 449.31   Z"/>
<path xmlns="http://www.w3.org/2000/svg" fill="#1c0b09" d="   M 611.25 472.65   C 611.31 482.39 607.85 496.15 595.49 496.22   C 583.14 496.29 579.51 482.58 579.46 472.84   C 579.40 463.09 582.86 449.34 595.22 449.27   C 607.57 449.19 611.19 462.91 611.25 472.65   Z"/>
<path xmlns="http://www.w3.org/2000/svg" fill="#ffffff" d="   M 674.25 486.57   Q 673.48 495.09 680.50 496.11   Q 679.28 505.05 677.62 513.74   Q 676.78 518.14 675.12 522.46   C 670.84 533.63 657.92 533.67 648.00 533.87   Q 609.81 534.64 566.25 533.80   C 554.70 533.58 543.96 532.17 540.71 518.86   Q 538.84 511.18 537.40 503.27   Q 544.92 503.89 544.57 497.01   Q 544.32 492.02 544.18 478.07   Q 544.78 477.54 544.69 476.63   A 0.22 0.22 0.0 0 1 544.91 476.39   L 545.46 476.39   A 0.09 0.08 90.0 0 1 545.54 476.48   L 545.54 499.39   A 2.39 2.38 -27.3 0 1 545.10 500.77   Q 543.98 502.30 544.11 503.46   Q 544.91 510.73 547.11 518.21   C 549.77 527.29 558.88 527.57 567.26 527.85   Q 574.47 528.09 653.76 527.94   Q 659.79 527.93 665.20 524.94   Q 667.32 523.77 668.69 521.86   A 2.66 2.56 72.0 0 0 669.10 521.02   Q 672.58 508.50 674.29 495.01   A 2.10 2.06 -52.8 0 0 674.16 493.97   Q 672.48 489.58 674.25 486.57   Z"/>
<path xmlns="http://www.w3.org/2000/svg" fill="#ffffff" d="   M 478.41 495.68   Q 478.16 504.15 485.68 503.48   Q 485.85 504.12 484.98 505.35   A 1.99 1.93 -25.6 0 0 484.64 506.27   Q 483.88 514.43 481.46 521.26   C 477.33 532.88 466.66 533.63 456.00 533.83   Q 413.31 534.62 374.08 533.90   C 363.16 533.69 350.30 533.03 346.84 520.04   Q 343.71 508.26 342.51 495.92   Q 348.14 495.36 348.83 489.15   Q 350.50 490.28 348.82 493.21   A 2.81 2.80 55.3 0 0 348.49 495.05   Q 349.84 502.89 350.35 506.31   C 351.05 511.03 352.80 516.35 354.12 520.76   A 2.55 2.46 17.5 0 0 354.62 521.68   C 360.17 528.13 368.51 527.69 376.75 527.82   Q 418.54 528.50 460.50 527.75   C 466.72 527.64 473.61 525.46 475.65 518.86   C 476.89 514.83 479.99 503.94 477.75 499.69   A 1.48 1.41 30.5 0 1 477.58 499.10   L 477.34 495.68   A 0.41 0.41 0.0 0 1 478.11 495.45   Q 478.19 495.58 478.41 495.68   Z"/>
<path xmlns="http://www.w3.org/2000/svg" fill="#1c0b09" d="   M 508.24 529.90   C 499.46 525.61 497.53 515.50 500.31 506.59   C 501.96 501.29 508.29 486.59 515.67 491.11   Q 518.61 492.90 517.36 496.91   A 1.48 1.47 -6.6 0 1 516.69 497.75   C 509.24 501.99 504.93 512.70 509.48 520.66   A 0.78 0.69 14.9 0 0 509.58 520.81   L 513.21 525.08   A 1.96 1.95 20.1 0 1 513.65 526.02   C 514.05 528.48 511.31 530.40 509.15 530.16   A 2.75 2.68 -28.4 0 1 508.24 529.90   Z"/>
<path xmlns="http://www.w3.org/2000/svg" fill="#1c0b09" d="   M 510.90 593.54   C 526.34 593.54 541.75 589.65 552.81 578.72   A 4.13 4.13 0.0 0 1 558.80 578.92   L 559.01 579.15   A 4.30 4.29 46.9 0 1 558.81 585.06   C 545.59 598.10 528.93 602.35 510.90 602.34   C 492.86 602.34 476.20 598.09 462.99 585.03   A 4.30 4.29 -46.9 0 1 462.80 579.12   L 463.01 578.89   A 4.13 4.13 0.0 0 1 469.00 578.70   C 480.06 589.63 495.46 593.53 510.90 593.54   Z"/>
<path xmlns="http://www.w3.org/2000/svg" fill="#dba89a" d="   M 591.55 779.76   L 590.03 780.05   A 0.37 0.36 -35.0 0 1 589.77 780.01   Q 527.71 746.86 467.79 712.44   Q 446.96 700.48 434.32 691.65   Q 433.44 691.03 433.32 689.15   A 0.44 0.42 13.8 0 0 433.09 688.79   Q 432.73 688.61 432.47 688.78   L 432.46 684.24   A 0.40 0.40 0.0 0 1 433.02 683.88   Q 446.11 689.64 460.63 693.12   Q 477.91 697.25 494.72 698.48   Q 513.59 699.85 534.95 697.79   Q 559.68 695.41 583.26 686.98   Q 585.77 686.09 589.17 684.55   A 0.77 0.77 0.0 0 1 590.16 684.88   Q 590.28 685.09 590.29 685.75   Q 590.88 728.29 590.32 768.75   Q 590.28 771.31 591.55 779.76   Z"/>
<path xmlns="http://www.w3.org/2000/svg" fill="#f6c9b1" d="   M 591.55 779.76   Q 592.30 781.95 592.85 784.04   Q 599.23 808.15 620.23 819.75   Q 624.47 822.09 628.00 822.98   A 0.52 0.52 0.0 0 1 628.20 823.88   Q 620.27 830.40 610.38 836.62   Q 604.72 840.17 595.01 843.98   Q 585.32 847.77 576.34 850.56   C 568.65 852.95 560.55 854.72 552.00 855.81   Q 513.87 860.67 476.06 856.37   Q 446.57 853.02 418.90 840.21   C 410.15 836.17 401.28 830.45 394.36 824.09   A 0.54 0.54 0.0 0 1 394.54 823.19   Q 404.52 819.59 412.46 812.71   C 425.59 801.33 432.63 782.95 432.55 765.75   Q 432.28 713.30 432.47 688.78   Q 432.73 688.61 433.09 688.79   A 0.44 0.42 13.8 0 1 433.32 689.15   Q 433.44 691.03 434.32 691.65   Q 446.96 700.48 467.79 712.44   Q 527.71 746.86 589.77 780.01   A 0.37 0.36 -35.0 0 0 590.03 780.05   L 591.55 779.76   Z"/>
<path xmlns="http://www.w3.org/2000/svg" fill="#a5c7e0" d="   M 923.89 1024.00   L 98.46 1024.00   Q 104.05 1010.61 109.65 997.25   C 115.11 984.24 119.94 974.21 125.71 961.91   A 4.68 4.60 66.3 0 0 125.96 961.25   Q 126.49 959.32 127.10 958.07   Q 132.34 947.37 137.39 937.14   Q 140.59 930.65 149.26 919.25   Q 157.27 908.73 164.33 903.01   Q 170.14 898.32 177.07 894.72   C 184.36 890.95 192.87 887.84 200.50 884.87   Q 207.72 882.06 210.02 881.24   Q 270.94 859.54 329.74 839.21   Q 339.70 835.77 349.28 832.15   Q 364.04 826.56 368.68 824.65   Q 372.16 823.22 375.46 821.37   A 1.13 1.13 0.0 0 1 376.92 821.69   C 380.13 826.05 383.06 830.15 386.56 833.29   Q 393.05 839.10 400.48 843.53   Q 413.01 850.98 423.31 854.92   Q 438.31 860.65 445.61 862.58   Q 451.00 864.01 461.76 866.23   Q 468.00 867.52 478.22 868.47   Q 487.25 869.31 494.80 869.48   Q 516.96 869.96 525.26 869.75   Q 537.40 869.43 552.38 867.63   C 570.72 865.42 587.70 860.10 604.36 852.86   Q 619.66 846.20 633.09 835.10   Q 640.45 829.02 645.42 821.48   A 1.11 1.11 0.0 0 1 646.90 821.13   Q 648.81 822.23 651.07 823.19   Q 667.57 830.20 690.67 838.28   Q 780.43 869.68 812.12 881.15   Q 817.59 883.13 830.03 887.98   Q 842.09 892.67 847.50 895.84   Q 861.80 904.24 872.25 917.76   C 878.39 925.70 883.70 933.47 887.96 942.62   Q 889.93 946.83 892.39 951.66   Q 892.90 952.68 901.25 971.23   Q 916.70 1005.59 923.89 1024.00   Z"/>
</g></g></g></svg>