<svg xmlns="http://www.w3.org/2000/svg" width="100%" height="100%" viewBox="310 190 405 425" stroke-linecap="round" stroke-linejoin="round">
  <g stroke-width="12.00" stroke="#1f2937" fill="none" stroke-linecap="butt">
    <path d="   M 602.01 365.62   L 701.96 250.94   A 0.69 0.68 -61.9 0 0 701.63 249.83   L 513.65 198.75   A 6.63 6.58 46.8 0 0 510.63 198.64   Q 497.32 201.32 481.49 203.74   Q 429.57 211.67 378.81 198.65   A 0.48 0.48 0.0 0 0 378.21 199.12   L 378.21 229.74   A 0.44 0.44 0.0 0 1 377.66 230.16   L 348.53 222.35   A 0.46 0.46 0.0 0 0 347.95 222.80   L 347.95 253.44   A 0.42 0.42 0.0 0 1 347.42 253.84   L 318.80 246.17   A 0.42 0.42 0.0 0 0 318.27 246.57   L 318.27 431.62   A 0.64 0.63 7.9 0 0 318.74 432.23   L 392.77 452.07   A 0.31 0.31 0.0 0 1 392.93 452.57   L 317.72 538.85   A 0.59 0.58 -68.5 0 0 318.14 539.82   L 350.60 540.86   A 0.51 0.50 22.8 0 1 350.95 541.71   L 331.49 561.94   A 0.43 0.43 0.0 0 0 331.69 562.66   L 510.69 610.64   A 5.24 5.24 0.0 0 0 513.39 610.64   L 675.29 567.38   A 1.01 1.00 -7.5 0 0 676.04 566.41   L 676.04 428.73   A 0.56 0.56 0.0 0 1 676.46 428.19   L 688.73 424.91   A 0.53 0.53 0.0 0 1 689.40 425.42   L 689.40 593.20   A 0.54 0.54 0.0 0 0 689.94 593.74   L 705.54 593.74   A 0.37 0.36 -90.0 0 0 705.90 593.37   L 705.90 403.86   A 0.45 0.45 0.0 0 0 705.33 403.42   L 676.52 411.12   A 0.35 0.35 0.0 0 1 676.08 410.78   L 676.08 379.83   A 0.45 0.44 82.6 0 0 675.52 379.39   L 646.20 387.22   A 0.39 0.39 0.0 0 1 645.70 386.84   L 645.70 356.38   A 0.52 0.52 0.0 0 0 645.07 355.87   Q 620.44 361.37 610.97 363.68   Q 608.63 364.26 602.48 366.33   A 0.44 0.44 0.0 0 1 602.01 365.62" />
    <path d="   M 479.89 221.03   A 0.23 0.23 0.0 0 0 479.76 220.59   Q 437.08 225.99 395.24 219.26   A 0.44 0.43 -85.0 0 0 394.73 219.69   L 394.73 373.74   A 0.61 0.60 -83.4 0 0 395.19 374.33   Q 421.98 381.10 447.58 389.22   A 0.57 0.56 -59.6 0 0 448.15 389.07   Q 457.58 378.78 464.45 370.75   C 476.40 356.78 487.37 344.86 498.70 331.44   Q 501.31 328.35 503.17 325.66   A 1.31 1.27 63.2 0 0 503.40 324.92   L 503.40 226.83   A 0.32 0.32 0.0 0 0 502.89 226.58   Q 499.33 229.23 495.86 231.12   C 479.66 239.92 462.81 245.98 444.07 248.57   Q 426.36 251.02 409.14 250.22   A 0.57 0.56 1.6 0 1 408.60 249.66   L 408.60 234.20   A 0.47 0.46 1.2 0 1 409.09 233.74   C 433.30 234.77 458.06 231.30 479.89 221.03" />
    <path d="   M 599.96 253.55   C 621.82 259.54 643.93 261.40 666.42 258.16   A 0.18 0.18 0.0 0 0 666.45 257.81   Q 627.55 247.12 603.53 240.53   Q 579.52 233.94 540.61 223.30   A 0.18 0.18 0.0 0 0 540.45 223.60   C 558.14 237.87 578.10 247.55 599.96 253.55" />
    <path d="   M 520.49 305.78   A 0.46 0.46 0.0 0 0 521.29 306.08   L 529.02 297.21   A 1.73 1.70 20.1 0 1 530.32 296.62   L 605.93 296.62   A 0.42 0.42 0.0 0 1 606.25 297.31   L 454.55 471.35   A 0.57 0.56 -54.5 0 0 454.69 472.21   Q 455.07 472.44 455.76 472.43   Q 463.11 472.38 484.81 472.36   A 3.52 3.48 -69.3 0 0 487.45 471.15   C 508.43 447.16 536.48 414.54 563.09 384.57   Q 571.78 374.79 584.35 360.34   Q 644.07 291.68 644.80 290.81   Q 651.12 283.16 654.39 279.63   Q 656.24 277.63 657.84 276.28   A 0.36 0.36 0.0 0 0 657.58 275.65   C 631.28 277.74 607.46 273.78 581.78 265.31   C 567.03 260.44 552.74 252.42 540.25 244.32   C 534.49 240.58 527.05 234.13 521.02 229.30   A 0.33 0.32 19.4 0 0 520.49 229.55   L 520.49 305.78" />
    <path d="   M 364.98 244.21   L 364.98 396.19   A 0.62 0.62 0.0 0 0 365.44 396.79   L 426.67 413.20   A 0.68 0.68 0.0 0 0 427.36 412.99   L 435.46 403.70   A 0.44 0.44 0.0 0 0 435.27 403.00   Q 424.93 399.20 413.49 396.29   Q 397.16 392.15 378.96 387.33   A 1.02 1.02 0.0 0 1 378.20 386.34   L 378.20 248.04   A 0.88 0.87 -82.8 0 0 377.55 247.19   L 365.35 243.92   A 0.30 0.29 -82.6 0 0 364.98 244.21" />
    <path d="   M 348.07 271.37   A 0.33 0.33 0.0 0 0 347.83 271.05   L 335.19 267.66   A 0.33 0.33 0.0 0 0 334.77 267.98   L 334.77 418.99   A 0.33 0.33 0.0 0 0 335.01 419.31   L 405.20 438.13   A 0.33 0.33 0.0 0 0 405.54 438.02   L 414.47 427.78   A 0.33 0.33 0.0 0 0 414.31 427.24   L 348.31 409.56   A 0.33 0.33 0.0 0 1 348.07 409.24   L 348.07 271.37" />
    <path d="   M 417.14 488.65   L 569.30 314.07   A 0.40 0.40 0.0 0 0 569.00 313.41   L 538.17 313.41   A 3.12 3.11 20.5 0 0 535.82 314.48   L 353.54 523.60   A 0.62 0.62 0.0 0 0 353.96 524.62   C 407.36 528.49 461.52 546.49 503.04 580.86   A 0.24 0.24 0.0 0 0 503.43 580.68   L 503.43 479.27   A 0.22 0.22 0.0 0 0 503.04 479.13   L 494.64 488.76   A 1.71 1.70 -69.3 0 1 493.36 489.34   L 417.46 489.34   A 0.42 0.41 20.5 0 1 417.14 488.65" />
    <path d="   M 520.45 580.93   A 0.28 0.28 0.0 0 0 520.92 581.14   C 543.45 561.48 571.95 548.03 600.07 540.10   Q 614.44 536.05 628.52 532.34   A 0.85 0.85 0.0 0 0 629.15 531.52   L 629.15 377.04   A 0.32 0.31 -4.7 0 0 628.78 376.73   C 611.60 379.87 593.05 385.24 578.41 394.19   Q 575.67 395.86 573.52 398.27   Q 571.35 400.72 538.96 437.65   C 533.27 444.15 527.53 451.27 521.03 458.14   A 2.18 2.14 66.9 0 0 520.45 459.62   L 520.45 580.93" />
    <path d="   M 542.56 585.09   A 0.25 0.25 0.0 0 0 542.77 585.53   L 658.23 554.68   A 1.22 1.22 0.0 0 0 659.14 553.50   L 659.14 401.85   A 0.57 0.57 0.0 0 0 658.42 401.30   L 646.12 404.59   A 0.57 0.56 82.8 0 0 645.70 405.14   L 645.70 544.65   A 0.68 0.67 83.6 0 1 645.18 545.31   Q 626.56 549.84 604.13 556.15   C 582.03 562.37 560.96 571.83 542.56 585.09" />
    <path d="   M 481.63 585.66   A 0.37 0.37 0.0 0 0 481.92 584.99   Q 476.60 581.79 469.32 577.30   C 440.14 559.34 407.03 548.57 373.28 543.39   A 1.17 1.16 -63.4 0 0 372.27 543.73   L 362.91 553.46   A 0.24 0.24 0.0 0 0 363.03 553.86   L 481.63 585.66" />
  </g>
</svg>